ComicNeue-Angular-Regular.ufo
<glyph name="quotedbl" format="1">
  <advance width="312"/>
  <unicode hex="0022"/>
  <outline>
    <contour>
      <point x="123" y="510" type="line"/>
      <point x="69" y="500" type="line"/>
      <point x="69" y="680" type="line"/>
      <point x="123" y="690" type="line"/>
    </contour>
    <contour>
      <point x="243" y="510" type="line"/>
      <point x="189" y="500" type="line"/>
      <point x="189" y="680" type="line"/>
      <point x="243" y="690" type="line"/>
    </contour>
  </outline>
</glyph>
<glyph name="dollar" format="1">
  <advance width="605"/>
  <unicode hex="0024"/>
  <outline>
    <contour>
      <point x="337" y="383" type="line"/>
      <point x="475" y="342"/>
      <point x="542" y="279"/>
      <point x="542" y="191" type="curve" smooth="yes"/>
      <point x="542" y="81"/>
      <point x="445" y="13"/>
      <point x="337" y="1" type="curve"/>
      <point x="337" y="-65" type="line"/>
      <point x="284" y="-75" type="line"/>
      <point x="284" y="0" type="line"/>
      <point x="178" y="8"/>
      <point x="92" y="67"/>
      <point x="64" y="152" type="curve"/>
      <point x="125" y="162" type="line"/>
      <point x="149" y="95"/>
      <point x="218" y="61"/>
      <point x="284" y="54" type="curve"/>
      <point x="284" y="338" type="line"/>
      <point x="194" y="366"/>
      <point x="100" y="418"/>
      <point x="100" y="510" type="curve" smooth="yes"/>
      <point x="100" y="629"/>
      <point x="205" y="674"/>
      <point x="284" y="678" type="curve"/>
      <point x="284" y="741" type="line"/>
      <point x="337" y="751" type="line"/>
      <point x="337" y="681" type="line"/>
      <point x="407" y="679"/>
      <point x="539" y="657"/>
      <point x="539" y="539" type="curve" smooth="yes"/>
      <point x="539" y="533"/>
      <point x="539" y="527"/>
      <point x="538" y="521" type="curve"/>
      <point x="485" y="510" type="line"/>
      <point x="486" y="517"/>
      <point x="486" y="526"/>
      <point x="486" y="533" type="curve" smooth="yes"/>
      <point x="486" y="596"/>
      <point x="412" y="630"/>
      <point x="337" y="631" type="curve"/>
    </contour>
    <contour>
      <point x="164" y="510" type="curve" smooth="yes"/>
      <point x="164" y="462"/>
      <point x="198" y="429"/>
      <point x="284" y="399" type="curve"/>
      <point x="284" y="628" type="line"/>
      <point x="186" y="616"/>
      <point x="164" y="551"/>
    </contour>
    <contour>
      <point x="479" y="190" type="curve" smooth="yes"/>
      <point x="479" y="268"/>
      <point x="409" y="297"/>
      <point x="337" y="322" type="curve"/>
      <point x="337" y="55" type="line"/>
      <point x="385" y="63"/>
      <point x="479" y="95"/>
    </contour>
  </outline>
</glyph>
<glyph name="ampersand" format="1">
  <advance width="662"/>
  <unicode hex="0026"/>
  <outline>
    <contour>
      <point x="492" y="159" type="line"/>
      <point x="510" y="193"/>
      <point x="525" y="233"/>
      <point x="538" y="283" type="curve"/>
      <point x="494" y="333" type="line"/>
      <point x="484" y="281"/>
      <point x="470" y="238"/>
      <point x="454" y="204" type="curve"/>
      <point x="310" y="376" type="line"/>
      <point x="367" y="413"/>
      <point x="442" y="447"/>
      <point x="442" y="551" type="curve" smooth="yes"/>
      <point x="442" y="622"/>
      <point x="371" y="690"/>
      <point x="295" y="690" type="curve" smooth="yes"/>
      <point x="219" y="690"/>
      <point x="148" y="623"/>
      <point x="148" y="548" type="curve" smooth="yes"/>
      <point x="148" y="486"/>
      <point x="194" y="424"/>
      <point x="224" y="390" type="curve"/>
      <point x="142" y="346"/>
      <point x="61" y="297"/>
      <point x="61" y="181" type="curve" smooth="yes"/>
      <point x="61" y="67"/>
      <point x="167" y="-4"/>
      <point x="264" y="-4" type="curve" smooth="yes"/>
      <point x="322" y="-4"/>
      <point x="412" y="33"/>
      <point x="462" y="110" type="curve"/>
      <point x="555" y="0" type="line"/>
      <point x="596" y="34" type="line"/>
    </contour>
    <contour>
      <point x="202" y="548" type="curve" smooth="yes"/>
      <point x="202" y="598"/>
      <point x="252" y="637"/>
      <point x="295" y="637" type="curve" smooth="yes"/>
      <point x="341" y="637"/>
      <point x="389" y="593"/>
      <point x="389" y="551" type="curve" smooth="yes"/>
      <point x="389" y="511"/>
      <point x="384" y="474"/>
      <point x="273" y="417" type="curve"/>
      <point x="245" y="445"/>
      <point x="202" y="500"/>
    </contour>
    <contour>
      <point x="264" y="50" type="curve" smooth="yes"/>
      <point x="204" y="50"/>
      <point x="115" y="91"/>
      <point x="115" y="181" type="curve" smooth="yes"/>
      <point x="115" y="271"/>
      <point x="180" y="306"/>
      <point x="262" y="350" type="curve"/>
      <point x="426" y="153" type="line"/>
      <point x="383" y="82"/>
      <point x="311" y="50"/>
    </contour>
  </outline>
</glyph>
<glyph name="parenright" format="1">
  <advance width="377"/>
  <unicode hex="0029"/>
  <outline>
    <contour>
      <point x="61" y="771" type="line"/>
      <point x="63" y="765"/>
      <point x="257" y="623"/>
      <point x="257" y="340" type="curve" smooth="yes"/>
      <point x="257" y="192"/>
      <point x="189" y="37"/>
      <point x="83" y="-76" type="curve"/>
      <point x="116" y="-118" type="line"/>
      <point x="237" y="6"/>
      <point x="311" y="180"/>
      <point x="311" y="340" type="curve" smooth="yes"/>
      <point x="311" y="472"/>
      <point x="265" y="668"/>
      <point x="98" y="810" type="curve"/>
    </contour>
  </outline>
</glyph>
<glyph name="comma" format="1">
  <advance width="317"/>
  <unicode hex="002C"/>
  <outline>
    <contour>
      <point x="163" y="81" type="line"/>
      <point x="105" y="22" type="line"/>
      <point x="144" y="0" type="line"/>
      <point x="90" y="-96" type="line"/>
      <point x="139" y="-124" type="line"/>
      <point x="233" y="42" type="line"/>
    </contour>
  </outline>
</glyph>
<glyph name="period" format="1">
  <advance width="222"/>
  <unicode hex="002E"/>
  <outline>
    <contour>
      <point x="151" y="92" type="line"/>
      <point x="78" y="82" type="line"/>
      <point x="69" y="0" type="line"/>
      <point x="143" y="10" type="line"/>
    </contour>
  </outline>
</glyph>
<glyph name="slash" format="1">
  <advance width="492"/>
  <unicode hex="002F"/>
  <outline>
    <contour>
      <point x="407" y="692" type="line"/>
      <point x="27" y="0" type="line"/>
      <point x="88" y="0" type="line"/>
      <point x="468" y="692" type="line"/>
    </contour>
  </outline>
</glyph>
<glyph name="zero" format="1">
  <advance width="614"/>
  <unicode hex="0030"/>
  <outline>
    <contour>
      <point x="296" y="-3" type="curve" smooth="yes"/>
      <point x="164" y="-3"/>
      <point x="69" y="150"/>
      <point x="69" y="324" type="curve" smooth="yes"/>
      <point x="69" y="515"/>
      <point x="179" y="686"/>
      <point x="319" y="686" type="curve" smooth="yes"/>
      <point x="451" y="686"/>
      <point x="545" y="534"/>
      <point x="545" y="358" type="curve" smooth="yes"/>
      <point x="545" y="164"/>
      <point x="433" y="-3"/>
    </contour>
    <contour>
      <point x="319" y="631" type="curve" smooth="yes"/>
      <point x="214" y="631"/>
      <point x="123" y="493"/>
      <point x="123" y="326" type="curve" smooth="yes"/>
      <point x="123" y="183"/>
      <point x="194" y="52"/>
      <point x="296" y="52" type="curve" smooth="yes"/>
      <point x="400" y="52"/>
      <point x="492" y="190"/>
      <point x="492" y="356" type="curve" smooth="yes"/>
      <point x="492" y="501"/>
      <point x="418" y="631"/>
    </contour>
  </outline>
</glyph>
<glyph name="one" format="1">
  <advance width="414"/>
  <unicode hex="0031"/>
  <outline>
    <contour>
      <point x="250" y="54" type="line"/>
      <point x="348" y="54" type="line"/>
      <point x="338" y="0" type="line"/>
      <point x="75" y="0" type="line"/>
      <point x="85" y="54" type="line"/>
      <point x="196" y="54" type="line"/>
      <point x="205" y="559" type="line"/>
      <point x="97" y="462" type="line"/>
      <point x="61" y="502" type="line"/>
      <point x="260" y="681" type="line"/>
    </contour>
  </outline>
</glyph>
<glyph name="three" format="1">
  <advance width="549"/>
  <unicode hex="0033"/>
  <outline>
    <contour>
      <point x="356" y="385" type="curve"/>
      <point x="414" y="412"/>
      <point x="464" y="459"/>
      <point x="464" y="535" type="curve" smooth="yes"/>
      <point x="464" y="618"/>
      <point x="378" y="683"/>
      <point x="268" y="683" type="curve" smooth="yes"/>
      <point x="177" y="683"/>
      <point x="112" y="629"/>
      <point x="91" y="609" type="curve"/>
      <point x="128" y="569" type="line"/>
      <point x="140" y="580"/>
      <point x="194" y="629"/>
      <point x="268" y="629" type="curve" smooth="yes"/>
      <point x="354" y="629"/>
      <point x="407" y="580"/>
      <point x="407" y="535" type="curve" smooth="yes"/>
      <point x="407" y="467"/>
      <point x="338" y="413"/>
      <point x="220" y="406" type="curve"/>
      <point x="223" y="352" type="line"/>
      <point x="329" y="352"/>
      <point x="424" y="317"/>
      <point x="424" y="203" type="curve" smooth="yes"/>
      <point x="424" y="54"/>
      <point x="275" y="50"/>
      <point x="274" y="50" type="curve" smooth="yes"/>
      <point x="201" y="50"/>
      <point x="137" y="88"/>
      <point x="119" y="154" type="curve"/>
      <point x="67" y="132" type="line"/>
      <point x="97" y="39"/>
      <point x="188" y="-4"/>
      <point x="274" y="-4" type="curve" smooth="yes"/>
      <point x="354" y="-4"/>
      <point x="480" y="52"/>
      <point x="480" y="203" type="curve" smooth="yes"/>
      <point x="480" y="296"/>
      <point x="431" y="355"/>
    </contour>
  </outline>
</glyph>
<glyph name="four" format="1">
  <advance width="518"/>
  <unicode hex="0034"/>
  <outline>
    <contour>
      <point x="396" y="10" type="line"/>
      <point x="396" y="166" type="line"/>
      <point x="452" y="165" type="line"/>
      <point x="463" y="217" type="line"/>
      <point x="396" y="218" type="line"/>
      <point x="396" y="684" type="line"/>
      <point x="38" y="173" type="line"/>
      <point x="344" y="167" type="line"/>
      <point x="344" y="0" type="line"/>
    </contour>
    <contour>
      <point x="135" y="222" type="line"/>
      <point x="344" y="521" type="line"/>
      <point x="344" y="219" type="line"/>
    </contour>
  </outline>
</glyph>
<glyph name="five" format="1">
  <advance width="562"/>
  <unicode hex="0035"/>
  <outline>
    <contour>
      <point x="263" y="0" type="curve" smooth="yes"/>
      <point x="402" y="0"/>
      <point x="499" y="114"/>
      <point x="498" y="260" type="curve" smooth="yes"/>
      <point x="497" y="370"/>
      <point x="422" y="484"/>
      <point x="295" y="484" type="curve" smooth="yes"/>
      <point x="233" y="484"/>
      <point x="188" y="462"/>
      <point x="156" y="437" type="curve"/>
      <point x="174" y="619" type="line"/>
      <point x="466" y="619" type="line"/>
      <point x="476" y="672" type="line"/>
      <point x="127" y="672" type="line"/>
      <point x="96" y="364" type="line"/>
      <point x="145" y="348" type="line"/>
      <point x="173" y="394"/>
      <point x="232" y="431"/>
      <point x="295" y="431" type="curve" smooth="yes"/>
      <point x="368" y="431"/>
      <point x="447" y="371"/>
      <point x="446" y="260" type="curve" smooth="yes"/>
      <point x="445" y="153"/>
      <point x="376" y="52"/>
      <point x="263" y="53" type="curve" smooth="yes"/>
      <point x="211" y="53"/>
      <point x="145" y="85"/>
      <point x="115" y="152" type="curve"/>
      <point x="67" y="131" type="line"/>
      <point x="118" y="24"/>
      <point x="210" y="0"/>
    </contour>
  </outline>
</glyph>
<glyph name="six" format="1">
  <advance width="546"/>
  <unicode hex="0036"/>
  <outline>
    <contour>
      <point x="352" y="684" type="curve"/>
      <point x="369" y="634" type="line"/>
      <point x="275" y="596"/>
      <point x="175" y="503"/>
      <point x="139" y="400" type="curve"/>
      <point x="176" y="422"/>
      <point x="226" y="442"/>
      <point x="289" y="442" type="curve" smooth="yes"/>
      <point x="309" y="442"/>
      <point x="480" y="436"/>
      <point x="480" y="240" type="curve" smooth="yes"/>
      <point x="480" y="36"/>
      <point x="333" y="-5"/>
      <point x="279" y="-5" type="curve" smooth="yes"/>
      <point x="128" y="-5"/>
      <point x="61" y="110"/>
      <point x="61" y="245" type="curve" smooth="yes"/>
      <point x="61" y="447"/>
      <point x="174" y="608"/>
    </contour>
    <contour>
      <point x="118" y="318" type="curve"/>
      <point x="114" y="295"/>
      <point x="113" y="270"/>
      <point x="113" y="245" type="curve" smooth="yes"/>
      <point x="113" y="82"/>
      <point x="203" y="48"/>
      <point x="279" y="48" type="curve" smooth="yes"/>
      <point x="321" y="48"/>
      <point x="428" y="83"/>
      <point x="428" y="240" type="curve" smooth="yes"/>
      <point x="428" y="378"/>
      <point x="322" y="389"/>
      <point x="289" y="389" type="curve" smooth="yes"/>
      <point x="196" y="389"/>
      <point x="137" y="337"/>
    </contour>
  </outline>
</glyph>
<glyph name="seven" format="1">
  <advance width="501"/>
  <unicode hex="0037"/>
  <outline>
    <contour>
      <point x="154" y="0" type="line"/>
      <point x="496" y="675" type="line"/>
      <point x="64" y="675" type="line"/>
      <point x="74" y="621" type="line"/>
      <point x="410" y="621" type="line"/>
      <point x="107" y="25" type="line"/>
    </contour>
  </outline>
</glyph>
<glyph name="eight" format="1">
  <advance width="547"/>
  <unicode hex="0038"/>
  <outline>
    <contour>
      <point x="272" y="-3" type="curve" smooth="yes"/>
      <point x="152" y="-3"/>
      <point x="66" y="74"/>
      <point x="66" y="179" type="curve"/>
      <point x="69" y="284"/>
      <point x="140" y="336"/>
      <point x="205" y="368" type="curve"/>
      <point x="149" y="393"/>
      <point x="99" y="434"/>
      <point x="99" y="510" type="curve" smooth="yes"/>
      <point x="99" y="621"/>
      <point x="180" y="686"/>
      <point x="283" y="686" type="curve" smooth="yes"/>
      <point x="387" y="686"/>
      <point x="461" y="620"/>
      <point x="461" y="526" type="curve"/>
      <point x="458" y="444"/>
      <point x="407" y="403"/>
      <point x="352" y="375" type="curve"/>
      <point x="431" y="335"/>
      <point x="478" y="268"/>
      <point x="478" y="189" type="curve" smooth="yes"/>
      <point x="478" y="79"/>
      <point x="391" y="-3"/>
    </contour>
    <contour>
      <point x="282" y="343" type="curve"/>
      <point x="211" y="314"/>
      <point x="121" y="273"/>
      <point x="121" y="173" type="curve" smooth="yes"/>
      <point x="121" y="102"/>
      <point x="188" y="52"/>
      <point x="272" y="52" type="curve" smooth="yes"/>
      <point x="343" y="52"/>
      <point x="424" y="94"/>
      <point x="424" y="186" type="curve" smooth="yes"/>
      <point x="424" y="270"/>
      <point x="353" y="321"/>
    </contour>
    <contour>
      <point x="278" y="401" type="curve"/>
      <point x="355" y="436"/>
      <point x="406" y="463"/>
      <point x="406" y="532" type="curve" smooth="yes"/>
      <point x="406" y="593"/>
      <point x="351" y="630"/>
      <point x="283" y="630" type="curve" smooth="yes"/>
      <point x="205" y="630"/>
      <point x="153" y="578"/>
      <point x="153" y="514" type="curve" smooth="yes"/>
      <point x="153" y="459"/>
      <point x="189" y="426"/>
    </contour>
  </outline>
</glyph>
<glyph name="nine" format="1">
  <advance width="546"/>
  <unicode hex="0039"/>
  <outline>
    <contour>
      <point x="189" y="-3" type="curve"/>
      <point x="172" y="47" type="line"/>
      <point x="276" y="89"/>
      <point x="362" y="178"/>
      <point x="401" y="281" type="curve"/>
      <point x="365" y="259"/>
      <point x="315" y="239"/>
      <point x="251" y="239" type="curve" smooth="yes"/>
      <point x="232" y="239"/>
      <point x="61" y="245"/>
      <point x="61" y="441" type="curve" smooth="yes"/>
      <point x="61" y="589"/>
      <point x="154" y="686"/>
      <point x="264" y="686" type="curve" smooth="yes"/>
      <point x="414" y="686"/>
      <point x="480" y="573"/>
      <point x="480" y="436" type="curve" smooth="yes"/>
      <point x="480" y="205"/>
      <point x="329" y="49"/>
    </contour>
    <contour>
      <point x="423" y="363" type="curve"/>
      <point x="426" y="386"/>
      <point x="428" y="411"/>
      <point x="428" y="436" type="curve" smooth="yes"/>
      <point x="428" y="599"/>
      <point x="337" y="633"/>
      <point x="261" y="633" type="curve" smooth="yes"/>
      <point x="220" y="633"/>
      <point x="113" y="598"/>
      <point x="113" y="441" type="curve" smooth="yes"/>
      <point x="113" y="303"/>
      <point x="219" y="292"/>
      <point x="251" y="292" type="curve" smooth="yes"/>
      <point x="344" y="292"/>
      <point x="404" y="344"/>
    </contour>
  </outline>
</glyph>
<glyph name="colon" format="1">
  <advance width="250"/>
  <unicode hex="003A"/>
  <outline>
    <contour>
      <point x="179" y="445" type="line"/>
      <point x="170" y="363" type="line"/>
      <point x="96" y="353" type="line"/>
      <point x="105" y="435" type="line"/>
    </contour>
    <contour>
      <point x="151" y="92" type="line"/>
      <point x="143" y="10" type="line"/>
      <point x="69" y="0" type="line"/>
      <point x="78" y="82" type="line"/>
    </contour>
  </outline>
</glyph>
<glyph name="semicolon" format="1">
  <advance width="332"/>
  <unicode hex="003B"/>
  <outline>
    <contour>
      <point x="248" y="447" type="line"/>
      <point x="239" y="365" type="line"/>
      <point x="165" y="355" type="line"/>
      <point x="174" y="437" type="line"/>
    </contour>
    <contour>
      <point x="162" y="80" type="line"/>
      <point x="233" y="41" type="line"/>
      <point x="139" y="-124" type="line"/>
      <point x="90" y="-96" type="line"/>
      <point x="144" y="0" type="line"/>
      <point x="105" y="22" type="line"/>
    </contour>
  </outline>
</glyph>
<glyph name="less" format="1">
  <advance width="568"/>
  <unicode hex="003C"/>
  <outline>
    <contour>
      <point x="447" y="-2" type="line"/>
      <point x="477" y="43" type="line"/>
      <point x="170" y="250" type="line"/>
      <point x="494" y="459" type="line"/>
      <point x="465" y="504" type="line"/>
      <point x="72" y="251" type="line"/>
    </contour>
  </outline>
</glyph>
<glyph name="greater" format="1">
  <advance width="568"/>
  <unicode hex="003E"/>
  <outline>
    <contour>
      <point x="105" y="-2" type="line"/>
      <point x="76" y="43" type="line"/>
      <point x="400" y="252" type="line"/>
      <point x="93" y="460" type="line"/>
      <point x="123" y="504" type="line"/>
      <point x="498" y="251" type="line"/>
    </contour>
  </outline>
</glyph>
<glyph name="question" format="1">
  <advance width="542"/>
  <unicode hex="003F"/>
  <outline>
    <contour>
      <point x="254" y="713" type="curve" smooth="yes"/>
      <point x="147" y="713"/>
      <point x="82" y="633"/>
      <point x="60" y="600" type="curve"/>
      <point x="99" y="561" type="line"/>
      <point x="105" y="572"/>
      <point x="159" y="659"/>
      <point x="254" y="659" type="curve" smooth="yes"/>
      <point x="378" y="659"/>
      <point x="422" y="580"/>
      <point x="422" y="507" type="curve" smooth="yes"/>
      <point x="422" y="424"/>
      <point x="355" y="374"/>
      <point x="308" y="332" type="curve" smooth="yes"/>
      <point x="166" y="205" type="line"/>
      <point x="193" y="157" type="line"/>
      <point x="341" y="289" type="line" smooth="yes"/>
      <point x="391" y="334"/>
      <point x="475" y="397"/>
      <point x="475" y="507" type="curve" smooth="yes"/>
      <point x="475" y="630"/>
      <point x="386" y="713"/>
    </contour>
    <contour>
      <point x="213" y="92" type="line"/>
      <point x="157" y="82" type="line"/>
      <point x="150" y="0" type="line"/>
      <point x="206" y="10" type="line"/>
    </contour>
  </outline>
</glyph>
<glyph name="B" format="1">
  <advance width="602"/>
  <unicode hex="0042"/>
  <outline>
    <contour>
      <point x="65" y="0" type="line"/>
      <point x="132" y="0" type="line" smooth="yes"/>
      <point x="258" y="0"/>
      <point x="552" y="20"/>
      <point x="552" y="203" type="curve" smooth="yes"/>
      <point x="552" y="303"/>
      <point x="455" y="364"/>
      <point x="391" y="369" type="curve"/>
      <point x="458" y="396"/>
      <point x="492" y="445"/>
      <point x="492" y="504" type="curve" smooth="yes"/>
      <point x="492" y="614"/>
      <point x="411" y="681"/>
      <point x="276" y="681" type="curve" smooth="yes"/>
      <point x="65" y="681" type="line"/>
    </contour>
    <contour>
      <point x="119" y="332" type="line"/>
      <point x="303" y="332" type="line" smooth="yes"/>
      <point x="375" y="332"/>
      <point x="498" y="312"/>
      <point x="498" y="203" type="curve" smooth="yes"/>
      <point x="498" y="67"/>
      <point x="203" y="50"/>
      <point x="119" y="54" type="curve"/>
    </contour>
    <contour>
      <point x="119" y="627" type="line"/>
      <point x="276" y="627" type="line" smooth="yes"/>
      <point x="410" y="627"/>
      <point x="438" y="561"/>
      <point x="438" y="504" type="curve" smooth="yes"/>
      <point x="438" y="409"/>
      <point x="337" y="385"/>
      <point x="259" y="385" type="curve" smooth="yes"/>
      <point x="119" y="385" type="line"/>
    </contour>
  </outline>
</glyph>
<glyph name="E" format="1">
  <advance width="611"/>
  <unicode hex="0045"/>
  <outline>
    <contour>
      <point x="121" y="56" type="line"/>
      <point x="121" y="326" type="line"/>
      <point x="489" y="326" type="line"/>
      <point x="506" y="382" type="line"/>
      <point x="121" y="382" type="line"/>
      <point x="121" y="625" type="line"/>
      <point x="536" y="625" type="line"/>
      <point x="546" y="681" type="line"/>
      <point x="65" y="681" type="line"/>
      <point x="65" y="0" type="line"/>
      <point x="531" y="0" type="line"/>
      <point x="551" y="56" type="line"/>
    </contour>
  </outline>
</glyph>
<glyph name="F" format="1">
  <advance width="505"/>
  <unicode hex="0046"/>
  <outline>
    <contour>
      <point x="495" y="625" type="line"/>
      <point x="505" y="681" type="line"/>
      <point x="60" y="681" type="line"/>
      <point x="60" y="0" type="line"/>
      <point x="116" y="10" type="line"/>
      <point x="116" y="317" type="line"/>
      <point x="444" y="317" type="line"/>
      <point x="454" y="374" type="line"/>
      <point x="116" y="374" type="line"/>
      <point x="116" y="625" type="line"/>
    </contour>
  </outline>
</glyph>
<glyph name="G" format="1">
  <advance width="744"/>
  <unicode hex="0047"/>
  <outline>
    <contour>
      <point x="647" y="230" type="curve"/>
      <point x="660" y="229"/>
      <point x="675" y="224"/>
      <point x="684" y="221" type="curve"/>
      <point x="684" y="277" type="line"/>
      <point x="651" y="285"/>
      <point x="611" y="289"/>
      <point x="570" y="289" type="curve" smooth="yes"/>
      <point x="512" y="289"/>
      <point x="452" y="281"/>
      <point x="406" y="266" type="curve"/>
      <point x="406" y="208" type="line"/>
      <point x="443" y="224"/>
      <point x="507" y="236"/>
      <point x="567" y="236" type="curve" smooth="yes"/>
      <point x="572" y="236"/>
      <point x="584" y="236"/>
      <point x="594" y="235" type="curve"/>
      <point x="564" y="120"/>
      <point x="482" y="52"/>
      <point x="355" y="52" type="curve" smooth="yes"/>
      <point x="197" y="52"/>
      <point x="114" y="199"/>
      <point x="114" y="341" type="curve" smooth="yes"/>
      <point x="114" y="438"/>
      <point x="192" y="629"/>
      <point x="374" y="629" type="curve" smooth="yes"/>
      <point x="497" y="629"/>
      <point x="572" y="565"/>
      <point x="597" y="466" type="curve"/>
      <point x="650" y="477" type="line"/>
      <point x="620" y="598"/>
      <point x="525" y="682"/>
      <point x="374" y="682" type="curve" smooth="yes"/>
      <point x="186" y="682"/>
      <point x="60" y="500"/>
      <point x="60" y="341" type="curve" smooth="yes"/>
      <point x="60" y="149"/>
      <point x="182" y="-2"/>
      <point x="355" y="-2" type="curve" smooth="yes"/>
      <point x="587" y="-2"/>
      <point x="637" y="182"/>
    </contour>
  </outline>
</glyph>
<glyph name="H" format="1">
  <advance width="683"/>
  <unicode hex="0048"/>
  <outline>
    <contour>
      <point x="562" y="671" type="line"/>
      <point x="562" y="406" type="line"/>
      <point x="121" y="344" type="line"/>
      <point x="121" y="681" type="line"/>
      <point x="65" y="671" type="line"/>
      <point x="65" y="0" type="line"/>
      <point x="121" y="20" type="line"/>
      <point x="121" y="287" type="line"/>
      <point x="562" y="349" type="line"/>
      <point x="562" y="0" type="line"/>
      <point x="618" y="20" type="line"/>
      <point x="618" y="681" type="line"/>
    </contour>
  </outline>
</glyph>
<glyph name="I" format="1">
  <advance width="437"/>
  <unicode hex="0049"/>
  <outline>
    <contour>
      <point x="367" y="625" type="line"/>
      <point x="249" y="625" type="line"/>
      <point x="249" y="56" type="line"/>
      <point x="377" y="56" type="line"/>
      <point x="367" y="0" type="line"/>
      <point x="60" y="0" type="line"/>
      <point x="70" y="56" type="line"/>
      <point x="193" y="56" type="line"/>
      <point x="193" y="625" type="line"/>
      <point x="60" y="625" type="line"/>
      <point x="70" y="681" type="line"/>
      <point x="377" y="681" type="line"/>
    </contour>
  </outline>
</glyph>
<glyph name="K" format="1">
  <advance width="577"/>
  <unicode hex="004B"/>
  <outline>
    <contour>
      <point x="527" y="43" type="line"/>
      <point x="494" y="0" type="line"/>
      <point x="119" y="285" type="line"/>
      <point x="119" y="10" type="line"/>
      <point x="65" y="0" type="line"/>
      <point x="65" y="671" type="line"/>
      <point x="119" y="681" type="line"/>
      <point x="119" y="388" type="line"/>
      <point x="466" y="680" type="line"/>
      <point x="501" y="639" type="line"/>
      <point x="140" y="336" type="line"/>
    </contour>
  </outline>
</glyph>
<glyph name="L" format="1">
  <advance width="487"/>
  <unicode hex="004C"/>
  <outline>
    <contour>
      <point x="65" y="0" type="line"/>
      <point x="466" y="29" type="line"/>
      <point x="462" y="85" type="line"/>
      <point x="121" y="60" type="line"/>
      <point x="121" y="678" type="line"/>
      <point x="65" y="668" type="line"/>
    </contour>
  </outline>
</glyph>
<glyph name="P" format="1">
  <advance width="545"/>
  <unicode hex="0050"/>
  <outline>
    <contour>
      <point x="120" y="238" type="curve"/>
      <point x="120" y="10" type="line"/>
      <point x="65" y="0" type="line"/>
      <point x="65" y="674" type="line"/>
      <point x="88" y="676"/>
      <point x="143" y="679"/>
      <point x="177" y="679" type="curve" smooth="yes"/>
      <point x="316" y="679"/>
      <point x="515" y="651"/>
      <point x="515" y="472" type="curve" smooth="yes"/>
      <point x="515" y="307"/>
      <point x="294" y="244"/>
    </contour>
    <contour>
      <point x="120" y="623" type="line"/>
      <point x="120" y="293" type="line"/>
      <point x="332" y="302"/>
      <point x="459" y="372"/>
      <point x="459" y="466" type="curve" smooth="yes"/>
      <point x="459" y="551"/>
      <point x="398" y="623"/>
      <point x="166" y="623" type="curve" smooth="yes"/>
    </contour>
  </outline>
</glyph>
<glyph name="T" format="1">
  <advance width="522"/>
  <unicode hex="0054"/>
  <outline>
    <contour>
      <point x="225" y="0" type="line"/>
      <point x="282" y="10" type="line"/>
      <point x="282" y="625" type="line"/>
      <point x="512" y="625" type="line"/>
      <point x="512" y="681" type="line"/>
      <point x="10" y="681" type="line"/>
      <point x="10" y="625" type="line"/>
      <point x="225" y="625" type="line"/>
    </contour>
  </outline>
</glyph>
<glyph name="X" format="1">
  <advance width="646"/>
  <unicode hex="0058"/>
  <outline>
    <contour>
      <point x="566" y="27" type="line"/>
      <point x="347" y="345" type="line"/>
      <point x="574" y="652" type="line"/>
      <point x="529" y="685" type="line"/>
      <point x="314" y="393" type="line"/>
      <point x="115" y="685" type="line"/>
      <point x="69" y="653" type="line"/>
      <point x="280" y="346" type="line"/>
      <point x="47" y="29" type="line"/>
      <point x="92" y="-4" type="line"/>
      <point x="313" y="297" type="line"/>
      <point x="521" y="-4" type="line"/>
    </contour>
  </outline>
</glyph>
<glyph name="Z" format="1">
  <advance width="621"/>
  <unicode hex="005A"/>
  <outline>
    <contour>
      <point x="73" y="0" type="line"/>
      <point x="551" y="0" type="line"/>
      <point x="562" y="61" type="line"/>
      <point x="118" y="61" type="line"/>
      <point x="571" y="626" type="line"/>
      <point x="546" y="681" type="line"/>
      <point x="90" y="681" type="line"/>
      <point x="79" y="620" type="line"/>
      <point x="501" y="620" type="line"/>
      <point x="48" y="55" type="line"/>
    </contour>
  </outline>
</glyph>
<glyph name="bracketleft" format="1">
  <advance width="315"/>
  <unicode hex="005B"/>
  <outline>
    <contour>
      <point x="234" y="-124" type="line"/>
      <point x="66" y="-124" type="line"/>
      <point x="66" y="805" type="line"/>
      <point x="259" y="805" type="line"/>
      <point x="249" y="751" type="line"/>
      <point x="120" y="751" type="line"/>
      <point x="120" y="-70" type="line"/>
      <point x="244" y="-70" type="line"/>
    </contour>
  </outline>
</glyph>
<glyph name="backslash" format="1">
  <advance width="492"/>
  <unicode hex="005C"/>
  <outline>
    <contour>
      <point x="87" y="693" type="line"/>
      <point x="26" y="693" type="line"/>
      <point x="406" y="0" type="line"/>
      <point x="468" y="0" type="line"/>
    </contour>
  </outline>
</glyph>
<glyph name="bracketright" format="1">
  <advance width="315"/>
  <unicode hex="005D"/>
  <outline>
    <contour>
      <point x="87" y="805" type="line"/>
      <point x="76" y="751" type="line"/>
      <point x="200" y="751" type="line"/>
      <point x="200" y="-70" type="line"/>
      <point x="71" y="-70" type="line"/>
      <point x="61" y="-124" type="line"/>
      <point x="254" y="-124" type="line"/>
      <point x="254" y="805" type="line"/>
    </contour>
  </outline>
</glyph>
<glyph name="asciicircum" format="1">
  <advance width="500"/>
  <unicode hex="005E"/>
  <outline>
    <contour>
      <point x="143" y="718" type="line"/>
      <point x="257" y="806" type="line"/>
      <point x="353" y="719" type="line"/>
      <point x="389" y="759" type="line"/>
      <point x="260" y="881" type="line"/>
      <point x="110" y="760" type="line"/>
    </contour>
  </outline>
</glyph>
<glyph name="underscore" format="1">
  <advance width="476"/>
  <unicode hex="005F"/>
  <outline>
    <contour>
      <point x="478" y="-54" type="line"/>
      <point x="488" y="0" type="line"/>
      <point x="-2" y="0" type="line"/>
      <point x="-12" y="-54" type="line"/>
    </contour>
  </outline>
</glyph>
<glyph name="grave" format="1">
  <advance width="500"/>
  <unicode hex="0060"/>
  <outline>
    <contour>
      <point x="343" y="754" type="line"/>
      <point x="217" y="900" type="line"/>
      <point x="157" y="866" type="line"/>
      <point x="297" y="726" type="line"/>
    </contour>
  </outline>
</glyph>
<glyph name="f" format="1">
  <advance width="332"/>
  <unicode hex="0066"/>
  <outline>
    <contour>
      <point x="322" y="693" type="curve"/>
      <point x="299" y="640" type="line"/>
      <point x="294.787" y="640.106"/>
      <point x="290.694" y="640.16"/>
      <point x="286.716" y="640.16" type="curve" smooth="yes"/>
      <point x="178.331" y="640.16"/>
      <point x="156" y="600.389"/>
      <point x="156" y="502" type="curve"/>
      <point x="287" y="502" type="line"/>
      <point x="275" y="451" type="line"/>
      <point x="151" y="451" type="line"/>
      <point x="151" y="10" type="line"/>
      <point x="95" y="0" type="line"/>
      <point x="95" y="451" type="line"/>
      <point x="10" y="451" type="line"/>
      <point x="19" y="502" type="line"/>
      <point x="95" y="502" type="line"/>
      <point x="95" y="642.52"/>
      <point x="156.486" y="693.841"/>
      <point x="290.741" y="693.841" type="curve" smooth="yes"/>
      <point x="300.754" y="693.841"/>
      <point x="311.173" y="693.555"/>
    </contour>
  </outline>
</glyph>
<glyph name="h" format="1">
  <advance width="504"/>
  <unicode hex="0068"/>
  <outline>
    <contour>
      <point x="121" y="196" type="curve" smooth="yes"/>
      <point x="121" y="10" type="line"/>
      <point x="65" y="0" type="line"/>
      <point x="65" y="681" type="line"/>
      <point x="121" y="692" type="line"/>
      <point x="121" y="336" type="line"/>
      <point x="157" y="416"/>
      <point x="235" y="505"/>
      <point x="319" y="505" type="curve" smooth="yes"/>
      <point x="424" y="505"/>
      <point x="453" y="382"/>
      <point x="453" y="142" type="curve" smooth="yes"/>
      <point x="453" y="78"/>
      <point x="452" y="28"/>
      <point x="451" y="10" type="curve"/>
      <point x="397" y="0" type="line"/>
      <point x="398" y="14"/>
      <point x="399" y="69"/>
      <point x="399" y="136" type="curve" smooth="yes"/>
      <point x="399" y="337"/>
      <point x="382" y="451"/>
      <point x="319" y="451" type="curve" smooth="yes"/>
      <point x="233" y="451"/>
      <point x="152" y="319"/>
      <point x="136" y="285" type="curve" smooth="yes"/>
      <point x="124" y="260"/>
      <point x="121" y="230"/>
    </contour>
  </outline>
</glyph>
<glyph name="i" format="1">
  <advance width="193"/>
  <unicode hex="0069"/>
  <outline>
    <contour>
      <point x="65" y="491" type="line"/>
      <point x="65" y="0" type="line"/>
      <point x="124" y="10" type="line"/>
      <point x="124" y="500" type="line"/>
    </contour>
    <contour>
      <point x="128" y="689" type="line"/>
      <point x="72" y="679" type="line"/>
      <point x="65" y="597" type="line"/>
      <point x="122" y="607" type="line"/>
    </contour>
  </outline>
</glyph>
<glyph name="j" format="1">
  <advance width="313"/>
  <unicode hex="006A"/>
  <outline>
    <contour>
      <point x="247" y="697" type="line"/>
      <point x="190" y="687" type="line"/>
      <point x="184" y="605" type="line"/>
      <point x="240" y="615" type="line"/>
    </contour>
    <contour>
      <point x="-40" y="-10" type="line"/>
      <point x="-33" y="-27"/>
      <point x="27" y="-180"/>
      <point x="126" y="-180" type="curve" smooth="yes"/>
      <point x="220" y="-180"/>
      <point x="248" y="-72"/>
      <point x="248" y="0" type="curve" smooth="yes"/>
      <point x="248" y="17"/>
      <point x="245" y="247"/>
      <point x="241" y="513" type="curve"/>
      <point x="184" y="502" type="line"/>
      <point x="188" y="239"/>
      <point x="191" y="12"/>
      <point x="191" y="-5" type="curve" smooth="yes"/>
      <point x="191" y="-73"/>
      <point x="171" y="-129"/>
      <point x="126" y="-129" type="curve" smooth="yes"/>
      <point x="78" y="-129"/>
      <point x="33" y="-38"/>
      <point x="16" y="2" type="curve"/>
    </contour>
  </outline>
</glyph>
<glyph name="m" format="1">
  <advance width="817"/>
  <unicode hex="006D"/>
  <outline>
    <contour>
      <point x="133" y="306" type="curve" smooth="yes"/>
      <point x="200" y="415"/>
      <point x="271" y="462"/>
      <point x="313" y="462" type="curve" smooth="yes"/>
      <point x="347" y="462"/>
      <point x="393" y="449"/>
      <point x="393" y="333" type="curve" smooth="yes"/>
      <point x="393" y="0" type="line"/>
      <point x="449" y="10" type="line"/>
      <point x="449" y="282" type="line" smooth="yes"/>
      <point x="449" y="396"/>
      <point x="560" y="462"/>
      <point x="615" y="462" type="curve" smooth="yes"/>
      <point x="649" y="462"/>
      <point x="695" y="449"/>
      <point x="695" y="333" type="curve" smooth="yes"/>
      <point x="695" y="0" type="line"/>
      <point x="752" y="10" type="line"/>
      <point x="752" y="326" type="line" smooth="yes"/>
      <point x="752" y="479"/>
      <point x="677" y="511"/>
      <point x="615" y="511" type="curve" smooth="yes"/>
      <point x="561" y="511"/>
      <point x="489" y="467"/>
      <point x="442" y="400" type="curve"/>
      <point x="422" y="490"/>
      <point x="363" y="511"/>
      <point x="313" y="511" type="curve" smooth="yes"/>
      <point x="245" y="511"/>
      <point x="174" y="435"/>
      <point x="121" y="362" type="curve"/>
      <point x="121" y="492" type="line"/>
      <point x="65" y="482" type="line"/>
      <point x="65" y="0" type="line"/>
      <point x="121" y="10" type="line"/>
      <point x="121" y="264" type="line"/>
      <point x="121" y="264"/>
      <point x="122" y="288"/>
    </contour>
  </outline>
</glyph>
<glyph name="q" format="1">
  <advance width="523"/>
  <unicode hex="0071"/>
  <outline>
    <contour>
      <point x="402" y="490" type="curve"/>
      <point x="403" y="510" type="line"/>
      <point x="458" y="508" type="line"/>
      <point x="434" y="-186" type="line"/>
      <point x="378" y="-196" type="line"/>
      <point x="387" y="59" type="line"/>
      <point x="360" y="12"/>
      <point x="328" y="-10"/>
      <point x="257" y="-10" type="curve" smooth="yes"/>
      <point x="138" y="-10"/>
      <point x="50" y="87"/>
      <point x="50" y="210" type="curve" smooth="yes"/>
      <point x="50" y="392"/>
      <point x="168" y="496"/>
      <point x="327" y="496" type="curve" smooth="yes"/>
      <point x="350" y="496"/>
      <point x="376" y="494"/>
    </contour>
    <contour>
      <point x="392" y="163" type="curve" smooth="yes"/>
      <point x="401" y="438" type="line"/>
      <point x="379" y="442"/>
      <point x="349" y="445"/>
      <point x="327" y="445" type="curve" smooth="yes"/>
      <point x="194" y="445"/>
      <point x="101" y="362"/>
      <point x="101" y="208" type="curve" smooth="yes"/>
      <point x="101" y="110"/>
      <point x="168" y="42"/>
      <point x="256" y="42" type="curve" smooth="yes"/>
      <point x="336" y="42"/>
      <point x="389" y="85"/>
    </contour>
  </outline>
</glyph>
<glyph name="t" format="1">
  <advance width="373"/>
  <unicode hex="0074"/>
  <outline>
    <contour>
      <point x="353" y="502" type="line"/>
      <point x="215" y="502" type="line"/>
      <point x="215" y="671" type="line"/>
      <point x="158" y="661" type="line"/>
      <point x="158" y="502" type="line"/>
      <point x="20" y="502" type="line"/>
      <point x="20" y="446" type="line"/>
      <point x="158" y="446" type="line"/>
      <point x="158" y="0" type="line"/>
      <point x="215" y="10" type="line"/>
      <point x="215" y="446" type="line"/>
      <point x="353" y="446" type="line"/>
    </contour>
  </outline>
</glyph>
<glyph name="braceleft" format="1">
  <advance width="374"/>
  <unicode hex="007B"/>
  <outline>
    <contour>
      <point x="72" y="325" type="line"/>
      <point x="110" y="311"/>
      <point x="139" y="275"/>
      <point x="139" y="234" type="curve" smooth="yes"/>
      <point x="139" y="23" type="line" smooth="yes"/>
      <point x="139" y="-90"/>
      <point x="251" y="-123"/>
      <point x="311" y="-125" type="curve"/>
      <point x="313" y="-71" type="line"/>
      <point x="233" y="-64"/>
      <point x="193" y="-29"/>
      <point x="193" y="23" type="curve" smooth="yes"/>
      <point x="193" y="226" type="line" smooth="yes"/>
      <point x="193" y="283"/>
      <point x="167" y="325"/>
      <point x="134" y="350" type="curve"/>
      <point x="185" y="390"/>
      <point x="193" y="442"/>
      <point x="193" y="474" type="curve" smooth="yes"/>
      <point x="193" y="662" type="line" smooth="yes"/>
      <point x="193" y="719"/>
      <point x="245" y="753"/>
      <point x="310" y="756" type="curve"/>
      <point x="312" y="810" type="line"/>
      <point x="252" y="809"/>
      <point x="139" y="776"/>
      <point x="139" y="662" type="curve" smooth="yes"/>
      <point x="139" y="473" type="line" smooth="yes"/>
      <point x="139" y="425"/>
      <point x="113" y="392"/>
      <point x="72" y="375" type="curve"/>
    </contour>
  </outline>
</glyph>
<glyph name="braceright" format="1">
  <advance width="374"/>
  <unicode hex="007D"/>
  <outline>
    <contour>
      <point x="295" y="310" type="curve"/>
      <point x="295" y="360" type="line"/>
      <point x="257" y="374"/>
      <point x="228" y="410"/>
      <point x="228" y="451" type="curve" smooth="yes"/>
      <point x="228" y="662" type="line" smooth="yes"/>
      <point x="228" y="775"/>
      <point x="116" y="808"/>
      <point x="56" y="810" type="curve"/>
      <point x="54" y="756" type="line"/>
      <point x="134" y="749"/>
      <point x="174" y="714"/>
      <point x="174" y="662" type="curve" smooth="yes"/>
      <point x="174" y="459" type="line" smooth="yes"/>
      <point x="174" y="402"/>
      <point x="200" y="360"/>
      <point x="233" y="335" type="curve"/>
      <point x="182" y="295"/>
      <point x="174" y="243"/>
      <point x="174" y="211" type="curve" smooth="yes"/>
      <point x="174" y="23" type="line" smooth="yes"/>
      <point x="174" y="-34"/>
      <point x="122" y="-68"/>
      <point x="57" y="-71" type="curve"/>
      <point x="55" y="-125" type="line"/>
      <point x="115" y="-124"/>
      <point x="228" y="-91"/>
      <point x="228" y="23" type="curve" smooth="yes"/>
      <point x="228" y="212" type="line" smooth="yes"/>
      <point x="228" y="260"/>
      <point x="254" y="293"/>
    </contour>
  </outline>
</glyph>
<glyph name="asciitilde" format="1">
  <advance width="645"/>
  <unicode hex="007E"/>
  <outline>
    <contour>
      <point x="527" y="332" type="line"/>
      <point x="508" y="258"/>
      <point x="463" y="204"/>
      <point x="420" y="204" type="curve" smooth="yes"/>
      <point x="388" y="204"/>
      <point x="368" y="228"/>
      <point x="339" y="267" type="curve" smooth="yes"/>
      <point x="310" y="307"/>
      <point x="277" y="352"/>
      <point x="215" y="352" type="curve" smooth="yes"/>
      <point x="132" y="352"/>
      <point x="83" y="273"/>
      <point x="65" y="208" type="curve"/>
      <point x="114" y="184" type="line"/>
      <point x="118" y="199"/>
      <point x="144" y="298"/>
      <point x="215" y="298" type="curve" smooth="yes"/>
      <point x="247" y="298"/>
      <point x="267" y="275"/>
      <point x="295" y="236" type="curve" smooth="yes"/>
      <point x="325" y="195"/>
      <point x="358" y="150"/>
      <point x="420" y="150" type="curve" smooth="yes"/>
      <point x="522" y="150"/>
      <point x="565" y="271"/>
      <point x="577" y="308" type="curve"/>
    </contour>
  </outline>
</glyph>
<glyph name="cent" format="1">
  <advance width="506"/>
  <unicode hex="00A2"/>
  <outline>
    <contour>
      <point x="274" y="97" type="curve"/>
      <point x="272" y="17" type="line"/>
      <point x="225" y="0" type="line"/>
      <point x="228" y="101" type="line"/>
      <point x="108" y="133"/>
      <point x="51" y="217"/>
      <point x="51" y="314" type="curve" smooth="yes"/>
      <point x="51" y="427"/>
      <point x="120" y="559"/>
      <point x="240" y="595" type="curve"/>
      <point x="242" y="670" type="line"/>
      <point x="289" y="688" type="line"/>
      <point x="287" y="599" type="line"/>
      <point x="344" y="597"/>
      <point x="394" y="570"/>
      <point x="426" y="527" type="curve"/>
      <point x="386" y="488" type="line"/>
      <point x="364" y="523"/>
      <point x="327" y="544"/>
      <point x="285" y="547" type="curve"/>
      <point x="275" y="149" type="line"/>
      <point x="336" y="149"/>
      <point x="391" y="186"/>
      <point x="417" y="234" type="curve"/>
      <point x="456" y="194" type="line"/>
      <point x="419" y="138"/>
      <point x="354" y="100"/>
    </contour>
    <contour>
      <point x="229" y="154" type="curve"/>
      <point x="239" y="540" type="line"/>
      <point x="139" y="501"/>
      <point x="104" y="370"/>
      <point x="104" y="316" type="curve" smooth="yes"/>
      <point x="104" y="247"/>
      <point x="143" y="183"/>
    </contour>
  </outline>
</glyph>
<glyph name="sterling" format="1">
  <advance width="764"/>
  <unicode hex="00A3"/>
  <outline>
    <contour>
      <point x="637" y="155" type="line"/>
      <point x="627" y="81"/>
      <point x="591" y="44"/>
      <point x="531" y="44" type="curve" smooth="yes"/>
      <point x="490" y="44"/>
      <point x="442" y="61"/>
      <point x="400" y="94" type="curve" smooth="yes"/>
      <point x="373" y="114"/>
      <point x="342" y="125"/>
      <point x="309" y="125" type="curve" smooth="yes"/>
      <point x="292" y="125"/>
      <point x="275" y="122"/>
      <point x="257" y="117" type="curve"/>
      <point x="271" y="145"/>
      <point x="276" y="182"/>
      <point x="276" y="206" type="curve" smooth="yes"/>
      <point x="276" y="224"/>
      <point x="271" y="261"/>
      <point x="252" y="328" type="curve"/>
      <point x="491" y="328" type="line"/>
      <point x="501" y="381" type="line"/>
      <point x="240" y="381" type="line"/>
      <point x="233" y="418"/>
      <point x="232" y="451"/>
      <point x="232" y="481" type="curve" smooth="yes"/>
      <point x="232" y="611"/>
      <point x="287" y="672"/>
      <point x="404" y="672" type="curve" smooth="yes"/>
      <point x="517" y="672"/>
      <point x="570" y="610"/>
      <point x="582" y="513" type="curve"/>
      <point x="636" y="517" type="line"/>
      <point x="630" y="589"/>
      <point x="581" y="726"/>
      <point x="411" y="726" type="curve" smooth="yes"/>
      <point x="261" y="726"/>
      <point x="178" y="644"/>
      <point x="178" y="482" type="curve" smooth="yes"/>
      <point x="178" y="451"/>
      <point x="179" y="417"/>
      <point x="185" y="381" type="curve"/>
      <point x="83" y="381" type="line"/>
      <point x="73" y="328" type="line"/>
      <point x="199" y="328" type="line"/>
      <point x="219" y="260"/>
      <point x="222" y="228"/>
      <point x="222" y="196" type="curve" smooth="yes"/>
      <point x="222" y="154"/>
      <point x="190" y="84"/>
      <point x="132" y="41" type="curve"/>
      <point x="167" y="0" type="line"/>
      <point x="222" y="55"/>
      <point x="285" y="71"/>
      <point x="309" y="71" type="curve" smooth="yes"/>
      <point x="329" y="71"/>
      <point x="349" y="66"/>
      <point x="367" y="52" type="curve" smooth="yes"/>
      <point x="420" y="11"/>
      <point x="479" y="-10"/>
      <point x="531" y="-10" type="curve" smooth="yes"/>
      <point x="576" y="-10"/>
      <point x="672" y="7"/>
      <point x="690" y="148" type="curve"/>
    </contour>
  </outline>
</glyph>
<glyph name="yen" format="1">
  <advance width="585"/>
  <unicode hex="00A5"/>
  <outline>
    <contour>
      <point x="257" y="288" type="line"/>
      <point x="257" y="188" type="line"/>
      <point x="117" y="188" type="line"/>
      <point x="107" y="134" type="line"/>
      <point x="257" y="134" type="line"/>
      <point x="257" y="0" type="line"/>
      <point x="311" y="10" type="line"/>
      <point x="311" y="134" type="line"/>
      <point x="450" y="134" type="line"/>
      <point x="460" y="188" type="line"/>
      <point x="311" y="188" type="line"/>
      <point x="311" y="288" type="line"/>
      <point x="450" y="288" type="line"/>
      <point x="460" y="341" type="line"/>
      <point x="341" y="341" type="line"/>
      <point x="517" y="689" type="line"/>
      <point x="457" y="689" type="line"/>
      <point x="285" y="348" type="line"/>
      <point x="123" y="689" type="line"/>
      <point x="64" y="689" type="line"/>
      <point x="228" y="341" type="line"/>
      <point x="117" y="341" type="line"/>
      <point x="107" y="288" type="line"/>
    </contour>
  </outline>
</glyph>
<glyph name="section" format="1">
  <advance width="475"/>
  <unicode hex="00A7"/>
  <outline>
    <contour>
      <point x="412" y="284" type="curve" smooth="yes"/>
      <point x="412" y="262"/>
      <point x="405" y="239"/>
      <point x="391" y="218" type="curve"/>
      <point x="405" y="199"/>
      <point x="413" y="174"/>
      <point x="413" y="141" type="curve" smooth="yes"/>
      <point x="413" y="74"/>
      <point x="347" y="0"/>
      <point x="242" y="0" type="curve" smooth="yes"/>
      <point x="120" y="0"/>
      <point x="61" y="94"/>
      <point x="60" y="129" type="curve"/>
      <point x="112" y="137" type="line"/>
      <point x="131" y="84"/>
      <point x="178" y="53"/>
      <point x="242" y="53" type="curve" smooth="yes"/>
      <point x="331" y="53"/>
      <point x="360" y="113"/>
      <point x="360" y="142" type="curve" smooth="yes"/>
      <point x="360" y="187"/>
      <point x="340" y="211"/>
      <point x="242" y="241" type="curve" smooth="yes"/>
      <point x="136" y="273"/>
      <point x="89" y="311"/>
      <point x="89" y="382" type="curve" smooth="yes"/>
      <point x="89" y="412"/>
      <point x="99" y="434"/>
      <point x="114" y="452" type="curve"/>
      <point x="97" y="472"/>
      <point x="88" y="496"/>
      <point x="88" y="525" type="curve" smooth="yes"/>
      <point x="88" y="620"/>
      <point x="187" y="644"/>
      <point x="258" y="644" type="curve" smooth="yes"/>
      <point x="364" y="644"/>
      <point x="414" y="594"/>
      <point x="414" y="531" type="curve" smooth="yes"/>
      <point x="414" y="521"/>
      <point x="412" y="512"/>
      <point x="411" y="507" type="curve"/>
      <point x="359" y="515" type="line"/>
      <point x="359" y="519"/>
      <point x="360" y="525"/>
      <point x="360" y="533" type="curve" smooth="yes"/>
      <point x="360" y="569"/>
      <point x="330" y="594"/>
      <point x="261" y="594" type="curve" smooth="yes"/>
      <point x="190" y="594"/>
      <point x="140" y="569"/>
      <point x="140" y="524" type="curve" smooth="yes"/>
      <point x="140" y="467"/>
      <point x="207" y="448"/>
      <point x="247" y="436" type="curve" smooth="yes"/>
      <point x="340" y="406"/>
      <point x="412" y="384"/>
    </contour>
    <contour>
      <point x="351" y="253" type="curve"/>
      <point x="357" y="265"/>
      <point x="359" y="277"/>
      <point x="359" y="285" type="curve" smooth="yes"/>
      <point x="359" y="331"/>
      <point x="339" y="353"/>
      <point x="241" y="384" type="curve" smooth="yes"/>
      <point x="207" y="394"/>
      <point x="178" y="406"/>
      <point x="156" y="419" type="curve"/>
      <point x="146" y="408"/>
      <point x="141" y="396"/>
      <point x="141" y="381" type="curve" smooth="yes"/>
      <point x="141" y="324"/>
      <point x="208" y="305"/>
      <point x="248" y="293" type="curve" smooth="yes"/>
      <point x="287" y="281"/>
      <point x="323" y="269"/>
    </contour>
  </outline>
</glyph>
<glyph name="dieresis" format="1">
  <advance width="500"/>
  <unicode hex="00A8"/>
  <outline>
    <contour>
      <point x="211" y="663" type="line"/>
      <point x="138" y="653" type="line"/>
      <point x="129" y="571" type="line"/>
      <point x="203" y="581" type="line"/>
    </contour>
    <contour>
      <point x="371" y="663" type="line"/>
      <point x="298" y="653" type="line"/>
      <point x="289" y="571" type="line"/>
      <point x="363" y="581" type="line"/>
    </contour>
  </outline>
</glyph>
<glyph name="copyright" format="1">
  <advance width="576"/>
  <unicode hex="00A9"/>
  <outline>
    <contour>
      <point x="288" y="236" type="curve" smooth="yes"/>
      <point x="410" y="236"/>
      <point x="510" y="338"/>
      <point x="510" y="463" type="curve" smooth="yes"/>
      <point x="510" y="588"/>
      <point x="410" y="690"/>
      <point x="288" y="690" type="curve" smooth="yes"/>
      <point x="166" y="690"/>
      <point x="66" y="588"/>
      <point x="66" y="463" type="curve" smooth="yes"/>
      <point x="66" y="338"/>
      <point x="166" y="236"/>
    </contour>
    <contour>
      <point x="288" y="644" type="curve" smooth="yes"/>
      <point x="385" y="644"/>
      <point x="464" y="563"/>
      <point x="464" y="463" type="curve" smooth="yes"/>
      <point x="464" y="363"/>
      <point x="385" y="282"/>
      <point x="288" y="282" type="curve" smooth="yes"/>
      <point x="191" y="282"/>
      <point x="112" y="363"/>
      <point x="112" y="463" type="curve" smooth="yes"/>
      <point x="112" y="563"/>
      <point x="191" y="644"/>
    </contour>
    <contour>
      <point x="280" y="348" type="curve" smooth="yes"/>
      <point x="337" y="348"/>
      <point x="387" y="376"/>
      <point x="407" y="436" type="curve"/>
      <point x="362" y="447" type="line"/>
      <point x="349" y="414"/>
      <point x="325" y="394"/>
      <point x="280" y="394" type="curve" smooth="yes"/>
      <point x="246" y="394"/>
      <point x="209" y="422"/>
      <point x="209" y="464" type="curve" smooth="yes"/>
      <point x="209" y="489"/>
      <point x="217" y="545"/>
      <point x="291" y="545" type="curve" smooth="yes"/>
      <point x="310" y="545"/>
      <point x="337" y="532"/>
      <point x="351" y="515" type="curve"/>
      <point x="387" y="544" type="line"/>
      <point x="360" y="577"/>
      <point x="318" y="591"/>
      <point x="291" y="591" type="curve" smooth="yes"/>
      <point x="213" y="591"/>
      <point x="162" y="541"/>
      <point x="162" y="464" type="curve" smooth="yes"/>
      <point x="162" y="402"/>
      <point x="216" y="348"/>
    </contour>
  </outline>
</glyph>
<glyph name="ordfeminine" format="1">
  <advance width="250"/>
  <unicode hex="00AA"/>
  <outline>
    <contour>
      <point x="248" y="649" type="line"/>
      <point x="217" y="669"/>
      <point x="174" y="677"/>
      <point x="150" y="677" type="curve" smooth="yes"/>
      <point x="60" y="677"/>
      <point x="0" y="590"/>
      <point x="0" y="495" type="curve" smooth="yes"/>
      <point x="0" y="416"/>
      <point x="50" y="358"/>
      <point x="121" y="358" type="curve" smooth="yes"/>
      <point x="145" y="358"/>
      <point x="171" y="365"/>
      <point x="199" y="380" type="curve"/>
      <point x="199" y="352" type="line"/>
      <point x="249" y="362" type="line"/>
    </contour>
    <contour>
      <point x="150" y="628" type="curve" smooth="yes"/>
      <point x="172" y="628"/>
      <point x="181" y="624"/>
      <point x="201" y="618" type="curve"/>
      <point x="198" y="438" type="line"/>
      <point x="185" y="428"/>
      <point x="151" y="407"/>
      <point x="119" y="407" type="curve" smooth="yes"/>
      <point x="78" y="407"/>
      <point x="50" y="442"/>
      <point x="50" y="496" type="curve" smooth="yes"/>
      <point x="50" y="527"/>
      <point x="69" y="628"/>
    </contour>
  </outline>
</glyph>
<glyph name="guillemotleft" format="1">
  <advance width="609"/>
  <unicode hex="00AB"/>
  <outline>
    <contour>
      <point x="277" y="66" type="line"/>
      <point x="313" y="106" type="line"/>
      <point x="153" y="251" type="line"/>
      <point x="330" y="402" type="line"/>
      <point x="295" y="442" type="line"/>
      <point x="72" y="252" type="line"/>
    </contour>
    <contour>
      <point x="482" y="66" type="line"/>
      <point x="518" y="106" type="line"/>
      <point x="358" y="251" type="line"/>
      <point x="535" y="402" type="line"/>
      <point x="500" y="442" type="line"/>
      <point x="277" y="252" type="line"/>
    </contour>
  </outline>
</glyph>
<glyph name="logicalnot" format="1">
  <advance width="516"/>
  <unicode hex="00AC"/>
  <outline>
    <contour>
      <point x="395" y="114" type="line"/>
      <point x="396" y="265" type="line"/>
      <point x="71" y="265" type="line"/>
      <point x="81" y="316" type="line"/>
      <point x="447" y="316" type="line"/>
      <point x="446" y="131" type="line"/>
    </contour>
  </outline>
</glyph>
<glyph name="registered" format="1">
  <advance width="576"/>
  <unicode hex="00AE"/>
  <outline>
    <contour>
      <point x="288" y="236" type="curve" smooth="yes"/>
      <point x="166" y="236"/>
      <point x="66" y="338"/>
      <point x="66" y="463" type="curve" smooth="yes"/>
      <point x="66" y="588"/>
      <point x="166" y="690"/>
      <point x="288" y="690" type="curve" smooth="yes"/>
      <point x="410" y="690"/>
      <point x="510" y="588"/>
      <point x="510" y="463" type="curve" smooth="yes"/>
      <point x="510" y="338"/>
      <point x="410" y="236"/>
    </contour>
    <contour>
      <point x="288" y="644" type="curve" smooth="yes"/>
      <point x="191" y="644"/>
      <point x="112" y="563"/>
      <point x="112" y="463" type="curve" smooth="yes"/>
      <point x="112" y="363"/>
      <point x="191" y="282"/>
      <point x="288" y="282" type="curve" smooth="yes"/>
      <point x="385" y="282"/>
      <point x="464" y="363"/>
      <point x="464" y="463" type="curve" smooth="yes"/>
      <point x="464" y="563"/>
      <point x="385" y="644"/>
    </contour>
    <contour>
      <point x="304" y="447" type="curve"/>
      <point x="388" y="389" type="line"/>
      <point x="357" y="355" type="line"/>
      <point x="238" y="437" type="line"/>
      <point x="226" y="365" type="line"/>
      <point x="178" y="360" type="line"/>
      <point x="211" y="562" type="line" smooth="yes"/>
      <point x="214" y="579"/>
      <point x="214" y="590"/>
      <point x="289" y="590" type="curve" smooth="yes"/>
      <point x="363" y="590"/>
      <point x="404" y="563"/>
      <point x="404" y="520" type="curve" smooth="yes"/>
      <point x="404" y="478"/>
      <point x="351" y="457"/>
    </contour>
    <contour>
      <point x="255" y="543" type="curve"/>
      <point x="246" y="485" type="line"/>
      <point x="308" y="491"/>
      <point x="358" y="510"/>
      <point x="358" y="520" type="curve" smooth="yes"/>
      <point x="358" y="538"/>
      <point x="318" y="544"/>
      <point x="283" y="544" type="curve" smooth="yes"/>
      <point x="274" y="544"/>
      <point x="264" y="544"/>
    </contour>
  </outline>
</glyph>
<glyph name="macron" format="1">
  <advance width="500"/>
  <unicode hex="00AF"/>
  <outline>
    <contour>
      <point x="371" y="587" type="line"/>
      <point x="381" y="641" type="line"/>
      <point x="129" y="641" type="line"/>
      <point x="119" y="587" type="line"/>
    </contour>
  </outline>
</glyph>
<glyph name="degree" format="1">
  <advance width="267"/>
  <unicode hex="00B0"/>
  <outline>
    <contour>
      <point x="133" y="500" type="curve" smooth="yes"/>
      <point x="206" y="500"/>
      <point x="266" y="560"/>
      <point x="266" y="633" type="curve" smooth="yes"/>
      <point x="266" y="707"/>
      <point x="206" y="766"/>
      <point x="133" y="766" type="curve" smooth="yes"/>
      <point x="60" y="766"/>
      <point x="0" y="707"/>
      <point x="0" y="633" type="curve" smooth="yes"/>
      <point x="0" y="560"/>
      <point x="60" y="500"/>
    </contour>
    <contour>
      <point x="133" y="710" type="curve" smooth="yes"/>
      <point x="175" y="710"/>
      <point x="210" y="675"/>
      <point x="210" y="633" type="curve" smooth="yes"/>
      <point x="210" y="591"/>
      <point x="175" y="556"/>
      <point x="133" y="556" type="curve" smooth="yes"/>
      <point x="91" y="556"/>
      <point x="56" y="591"/>
      <point x="56" y="633" type="curve" smooth="yes"/>
      <point x="56" y="675"/>
      <point x="91" y="710"/>
    </contour>
  </outline>
</glyph>
<glyph name="twosuperior" format="1">
  <advance width="237"/>
  <unicode hex="00B2"/>
  <outline>
    <contour>
      <point x="32" y="718" type="line"/>
      <point x="57" y="760"/>
      <point x="91" y="775"/>
      <point x="120" y="775" type="curve" smooth="yes"/>
      <point x="153" y="775"/>
      <point x="185" y="756"/>
      <point x="185" y="724" type="curve" smooth="yes"/>
      <point x="185" y="694"/>
      <point x="159" y="664"/>
      <point x="100" y="625" type="curve" smooth="yes"/>
      <point x="34" y="581"/>
      <point x="3" y="543"/>
      <point x="3" y="461" type="curve" smooth="yes"/>
      <point x="3" y="439" type="line"/>
      <point x="229" y="439" type="line"/>
      <point x="237" y="484" type="line"/>
      <point x="49" y="484" type="line"/>
      <point x="55" y="534"/>
      <point x="77" y="557"/>
      <point x="125" y="588" type="curve" smooth="yes"/>
      <point x="171" y="617"/>
      <point x="230" y="667"/>
      <point x="230" y="724" type="curve" smooth="yes"/>
      <point x="230" y="761"/>
      <point x="205" y="821"/>
      <point x="120" y="821" type="curve" smooth="yes"/>
      <point x="69" y="821"/>
      <point x="23" y="789"/>
      <point x="0" y="754" type="curve"/>
    </contour>
  </outline>
</glyph>
<glyph name="threesuperior" format="1">
  <advance width="236"/>
  <unicode hex="00B3"/>
  <outline>
    <contour>
      <point x="42" y="738" type="curve"/>
      <point x="11" y="771" type="line"/>
      <point x="30" y="791"/>
      <point x="66" y="818"/>
      <point x="116" y="818" type="curve" smooth="yes"/>
      <point x="179" y="818"/>
      <point x="228" y="780"/>
      <point x="228" y="732" type="curve" smooth="yes"/>
      <point x="228" y="699"/>
      <point x="212" y="672"/>
      <point x="181" y="653" type="curve"/>
      <point x="217" y="630"/>
      <point x="236" y="601"/>
      <point x="236" y="556" type="curve" smooth="yes"/>
      <point x="236" y="470"/>
      <point x="165" y="438"/>
      <point x="119" y="438" type="curve" smooth="yes"/>
      <point x="77" y="438"/>
      <point x="19" y="456"/>
      <point x="0" y="523" type="curve"/>
      <point x="43" y="541" type="line"/>
      <point x="48" y="504"/>
      <point x="78" y="483"/>
      <point x="119" y="483" type="curve" smooth="yes"/>
      <point x="140" y="483"/>
      <point x="191" y="496"/>
      <point x="191" y="556" type="curve" smooth="yes"/>
      <point x="191" y="596.172"/>
      <point x="162.64" y="627.195"/>
      <point x="94.5461" y="627.195" type="curve" smooth="yes"/>
      <point x="91.4467" y="627.195"/>
      <point x="88.2651" y="627.131"/>
      <point x="85" y="627" type="curve"/>
      <point x="82" y="671" type="line"/>
      <point x="117" y="671"/>
      <point x="182" y="684"/>
      <point x="182" y="732" type="curve" smooth="yes"/>
      <point x="182" y="757"/>
      <point x="148" y="773"/>
      <point x="116" y="773" type="curve" smooth="yes"/>
      <point x="93" y="773"/>
      <point x="66" y="763"/>
    </contour>
  </outline>
</glyph>
<glyph name="acute" format="1">
  <advance width="500"/>
  <unicode hex="00B4"/>
  <outline>
    <contour>
      <point x="149" y="602" type="line"/>
      <point x="189" y="567" type="line"/>
      <point x="351" y="679" type="line"/>
      <point x="299" y="724" type="line"/>
    </contour>
  </outline>
</glyph>
<glyph name="mu" format="1">
  <advance width="515"/>
  <unicode hex="00B5"/>
  <outline>
    <contour>
      <point x="65" y="292" type="curve" smooth="yes"/>
      <point x="65" y="189"/>
      <point x="94" y="-128"/>
      <point x="99" y="-164" type="curve"/>
      <point x="154" y="-174" type="line"/>
      <point x="136" y="13" type="line"/>
      <point x="157" y="1"/>
      <point x="188" y="-5"/>
      <point x="217" y="-5" type="curve" smooth="yes"/>
      <point x="295" y="-5"/>
      <point x="363" y="37"/>
      <point x="388" y="75" type="curve"/>
      <point x="388" y="1" type="line"/>
      <point x="450" y="11" type="line"/>
      <point x="450" y="505" type="line"/>
      <point x="397" y="495" type="line"/>
      <point x="392" y="160" type="line" smooth="yes"/>
      <point x="392" y="145"/>
      <point x="386" y="125"/>
      <point x="379" y="117" type="curve" smooth="yes"/>
      <point x="358" y="93"/>
      <point x="287" y="44"/>
      <point x="218" y="44" type="curve" smooth="yes"/>
      <point x="146" y="44"/>
      <point x="119" y="76"/>
      <point x="119" y="340" type="curve" smooth="yes"/>
      <point x="119" y="375"/>
      <point x="133" y="489"/>
      <point x="136" y="505" type="curve"/>
      <point x="81" y="495" type="line"/>
      <point x="77" y="464"/>
      <point x="65" y="374"/>
    </contour>
  </outline>
</glyph>
<glyph name="paragraph" format="1">
  <advance width="559"/>
  <unicode hex="00B6"/>
  <outline>
    <contour>
      <point x="358" y="729" type="curve"/>
      <point x="358" y="729"/>
      <point x="376" y="732"/>
      <point x="377" y="732" type="curve"/>
      <point x="368" y="785" type="line"/>
      <point x="230" y="760"/>
      <point x="59" y="679"/>
      <point x="59" y="526" type="curve" smooth="yes"/>
      <point x="59" y="365"/>
      <point x="201" y="349"/>
      <point x="294" y="349" type="curve"/>
      <point x="283" y="227"/>
      <point x="264" y="82"/>
      <point x="232" y="-79" type="curve"/>
      <point x="287" y="-75" type="line"/>
      <point x="349" y="239"/>
      <point x="360" y="494"/>
      <point x="360" y="631" type="curve" smooth="yes"/>
      <point x="360" y="679"/>
      <point x="359" y="713"/>
    </contour>
    <contour>
      <point x="471" y="739" type="curve"/>
      <point x="417" y="735" type="line"/>
      <point x="417" y="734"/>
      <point x="419" y="699"/>
      <point x="419" y="637" type="curve" smooth="yes"/>
      <point x="419" y="503"/>
      <point x="409" y="242"/>
      <point x="344" y="-80" type="curve"/>
      <point x="400" y="-75" type="line"/>
      <point x="463" y="245"/>
      <point x="473" y="504"/>
      <point x="473" y="638" type="curve" smooth="yes"/>
      <point x="473" y="702"/>
      <point x="471" y="738"/>
    </contour>
  </outline>
</glyph>
<glyph name="onesuperior" format="1">
  <advance width="179"/>
  <unicode hex="00B9"/>
  <outline>
    <contour>
      <point x="9" y="454" type="line"/>
      <point x="171" y="454" type="line"/>
      <point x="179" y="500" type="line"/>
      <point x="124" y="500" type="line"/>
      <point x="129" y="856" type="line"/>
      <point x="0" y="739" type="line"/>
      <point x="30" y="705" type="line"/>
      <point x="82" y="752" type="line"/>
      <point x="78" y="500" type="line"/>
      <point x="18" y="500" type="line"/>
    </contour>
  </outline>
</glyph>
<glyph name="guillemotright" format="1">
  <advance width="609"/>
  <unicode hex="00BB"/>
  <outline>
    <contour>
      <point x="129" y="66" type="line"/>
      <point x="92" y="106" type="line"/>
      <point x="252" y="251" type="line"/>
      <point x="76" y="402" type="line"/>
      <point x="111" y="442" type="line"/>
      <point x="334" y="252" type="line"/>
    </contour>
    <contour>
      <point x="333" y="66" type="line"/>
      <point x="297" y="106" type="line"/>
      <point x="457" y="251" type="line"/>
      <point x="281" y="402" type="line"/>
      <point x="316" y="442" type="line"/>
      <point x="539" y="252" type="line"/>
    </contour>
  </outline>
</glyph>
<glyph name="questiondown" format="1">
  <advance width="501"/>
  <unicode hex="00BF"/>
  <outline>
    <contour>
      <point x="262" y="621" type="line"/>
      <point x="269" y="703" type="line"/>
      <point x="325" y="713" type="line"/>
      <point x="318" y="631" type="line"/>
    </contour>
    <contour>
      <point x="221" y="0" type="curve" smooth="yes"/>
      <point x="89" y="0"/>
      <point x="0" y="83"/>
      <point x="0" y="206" type="curve" smooth="yes"/>
      <point x="0" y="316"/>
      <point x="84" y="379"/>
      <point x="134" y="424" type="curve" smooth="yes"/>
      <point x="282" y="556" type="line"/>
      <point x="309" y="508" type="line"/>
      <point x="167" y="381" type="line" smooth="yes"/>
      <point x="120" y="339"/>
      <point x="53" y="289"/>
      <point x="53" y="206" type="curve" smooth="yes"/>
      <point x="53" y="133"/>
      <point x="97" y="54"/>
      <point x="221" y="54" type="curve" smooth="yes"/>
      <point x="316" y="54"/>
      <point x="370" y="141"/>
      <point x="376" y="152" type="curve"/>
      <point x="415" y="113" type="line"/>
      <point x="393" y="80"/>
      <point x="328" y="0"/>
    </contour>
  </outline>
</glyph>
<glyph name="Agrave" format="1">
  <advance width="623"/>
  <unicode hex="00C0"/>
  <outline>
    <contour>
      <point x="360" y="680" type="line"/>
      <point x="290" y="667" type="line"/>
      <point x="135" y="253" type="line"/>
      <point x="60" y="238" type="line"/>
      <point x="71" y="184" type="line"/>
      <point x="112" y="192" type="line"/>
      <point x="50" y="26" type="line"/>
      <point x="99" y="0" type="line"/>
      <point x="176" y="206" type="line"/>
      <point x="440" y="261" type="line"/>
      <point x="526" y="1" type="line"/>
      <point x="573" y="33" type="line"/>
    </contour>
    <contour>
      <point x="199" y="267" type="line"/>
      <point x="326" y="607" type="line"/>
      <point x="423" y="313" type="line"/>
    </contour>
    <contour>
      <point x="416" y="754" type="line"/>
      <point x="290" y="900" type="line"/>
      <point x="230" y="866" type="line"/>
      <point x="370" y="726" type="line"/>
    </contour>
  </outline>
</glyph>
<glyph name="Atilde" format="1">
  <advance width="623"/>
  <unicode hex="00C3"/>
  <outline>
    <contour>
      <point x="360" y="680" type="line"/>
      <point x="573" y="33" type="line"/>
      <point x="526" y="1" type="line"/>
      <point x="440" y="261" type="line"/>
      <point x="176" y="206" type="line"/>
      <point x="99" y="0" type="line"/>
      <point x="50" y="26" type="line"/>
      <point x="112" y="192" type="line"/>
      <point x="71" y="184" type="line"/>
      <point x="60" y="238" type="line"/>
      <point x="135" y="253" type="line"/>
      <point x="290" y="667" type="line"/>
    </contour>
    <contour>
      <point x="199" y="267" type="line"/>
      <point x="423" y="313" type="line"/>
      <point x="326" y="607" type="line"/>
    </contour>
    <contour>
      <point x="389" y="762" type="curve" smooth="yes"/>
      <point x="422" y="762"/>
      <point x="444" y="824"/>
      <point x="453" y="853" type="curve"/>
      <point x="502" y="837" type="line"/>
      <point x="487" y="772"/>
      <point x="440" y="721"/>
      <point x="389" y="721" type="curve" smooth="yes"/>
      <point x="344" y="721"/>
      <point x="320" y="753"/>
      <point x="300" y="781" type="curve" smooth="yes"/>
      <point x="281" y="807"/>
      <point x="270" y="829"/>
      <point x="253" y="829" type="curve" smooth="yes"/>
      <point x="222" y="829"/>
      <point x="198" y="770"/>
      <point x="192" y="745" type="curve"/>
      <point x="143" y="763" type="line"/>
      <point x="159" y="813"/>
      <point x="192" y="870"/>
      <point x="253" y="870" type="curve" smooth="yes"/>
      <point x="299" y="870"/>
      <point x="323" y="837"/>
      <point x="342" y="811" type="curve" smooth="yes"/>
      <point x="361" y="785"/>
      <point x="372" y="762"/>
    </contour>
  </outline>
</glyph>
<glyph name="Adieresis" format="1">
  <advance width="623"/>
  <unicode hex="00C4"/>
  <outline>
    <contour>
      <point x="360" y="680" type="line"/>
      <point x="290" y="667" type="line"/>
      <point x="135" y="253" type="line"/>
      <point x="60" y="238" type="line"/>
      <point x="71" y="184" type="line"/>
      <point x="112" y="192" type="line"/>
      <point x="50" y="26" type="line"/>
      <point x="99" y="0" type="line"/>
      <point x="176" y="206" type="line"/>
      <point x="440" y="261" type="line"/>
      <point x="526" y="1" type="line"/>
      <point x="573" y="33" type="line"/>
    </contour>
    <contour>
      <point x="199" y="267" type="line"/>
      <point x="326" y="607" type="line"/>
      <point x="423" y="313" type="line"/>
    </contour>
    <contour>
      <point x="292" y="819" type="line"/>
      <point x="219" y="809" type="line"/>
      <point x="210" y="727" type="line"/>
      <point x="284" y="737" type="line"/>
    </contour>
    <contour>
      <point x="453" y="819" type="line"/>
      <point x="380" y="809" type="line"/>
      <point x="371" y="727" type="line"/>
      <point x="445" y="737" type="line"/>
    </contour>
  </outline>
</glyph>
<glyph name="Ecircumflex" format="1">
  <advance width="611"/>
  <unicode hex="00CA"/>
  <outline>
    <contour>
      <point x="121" y="56" type="line"/>
      <point x="121" y="326" type="line"/>
      <point x="489" y="326" type="line"/>
      <point x="506" y="382" type="line"/>
      <point x="121" y="382" type="line"/>
      <point x="121" y="625" type="line"/>
      <point x="536" y="625" type="line"/>
      <point x="546" y="681" type="line"/>
      <point x="65" y="681" type="line"/>
      <point x="65" y="0" type="line"/>
      <point x="531" y="0" type="line"/>
      <point x="551" y="56" type="line"/>
    </contour>
    <contour>
      <point x="200" y="718" type="line"/>
      <point x="314" y="806" type="line"/>
      <point x="410" y="719" type="line"/>
      <point x="446" y="759" type="line"/>
      <point x="317" y="881" type="line"/>
      <point x="167" y="760" type="line"/>
    </contour>
  </outline>
</glyph>
<glyph name="Igrave" format="1">
  <advance width="437"/>
  <unicode hex="00CC"/>
  <outline>
    <contour>
      <point x="367" y="625" type="line"/>
      <point x="377" y="681" type="line"/>
      <point x="70" y="681" type="line"/>
      <point x="60" y="625" type="line"/>
      <point x="193" y="625" type="line"/>
      <point x="193" y="56" type="line"/>
      <point x="70" y="56" type="line"/>
      <point x="60" y="0" type="line"/>
      <point x="367" y="0" type="line"/>
      <point x="377" y="56" type="line"/>
      <point x="249" y="56" type="line"/>
      <point x="249" y="625" type="line"/>
    </contour>
    <contour>
      <point x="304" y="754" type="line"/>
      <point x="178" y="900" type="line"/>
      <point x="118" y="866" type="line"/>
      <point x="258" y="726" type="line"/>
    </contour>
  </outline>
</glyph>
<glyph name="Ntilde" format="1">
  <advance width="615"/>
  <unicode hex="00D1"/>
  <outline>
    <contour>
      <point x="497" y="671" type="line"/>
      <point x="497" y="88" type="line"/>
      <point x="124" y="681" type="line"/>
      <point x="65" y="664" type="line"/>
      <point x="66" y="1" type="line"/>
      <point x="119" y="12" type="line"/>
      <point x="119" y="588" type="line"/>
      <point x="486" y="0" type="line"/>
      <point x="550" y="13" type="line"/>
      <point x="550" y="681" type="line"/>
    </contour>
    <contour>
      <point x="379" y="762" type="curve" smooth="yes"/>
      <point x="362" y="762"/>
      <point x="351" y="785"/>
      <point x="332" y="811" type="curve" smooth="yes"/>
      <point x="313" y="837"/>
      <point x="289" y="870"/>
      <point x="243" y="870" type="curve" smooth="yes"/>
      <point x="182" y="870"/>
      <point x="149" y="813"/>
      <point x="133" y="763" type="curve"/>
      <point x="182" y="745" type="line"/>
      <point x="188" y="770"/>
      <point x="212" y="829"/>
      <point x="243" y="829" type="curve" smooth="yes"/>
      <point x="260" y="829"/>
      <point x="271" y="807"/>
      <point x="290" y="781" type="curve" smooth="yes"/>
      <point x="310" y="753"/>
      <point x="334" y="721"/>
      <point x="379" y="721" type="curve" smooth="yes"/>
      <point x="430" y="721"/>
      <point x="477" y="772"/>
      <point x="492" y="837" type="curve"/>
      <point x="443" y="853" type="line"/>
      <point x="434" y="824"/>
      <point x="412" y="762"/>
    </contour>
  </outline>
</glyph>
<glyph name="Oacute" format="1">
  <advance width="660"/>
  <unicode hex="00D3"/>
  <outline>
    <contour>
      <point x="262" y="771" type="line"/>
      <point x="412" y="893" type="line"/>
      <point x="465" y="848" type="line"/>
      <point x="303" y="736" type="line"/>
    </contour>
    <contour>
      <point x="309" y="0" type="curve" smooth="yes"/>
      <point x="164" y="0"/>
      <point x="60" y="145"/>
      <point x="60" y="315" type="curve" smooth="yes"/>
      <point x="60" y="515"/>
      <point x="195" y="684"/>
      <point x="351" y="684" type="curve" smooth="yes"/>
      <point x="495" y="684"/>
      <point x="600" y="541"/>
      <point x="600" y="369" type="curve" smooth="yes"/>
      <point x="600" y="169"/>
      <point x="465" y="0"/>
    </contour>
    <contour>
      <point x="344" y="632" type="curve" smooth="yes"/>
      <point x="221" y="632"/>
      <point x="113" y="491"/>
      <point x="113" y="315" type="curve" smooth="yes"/>
      <point x="113" y="171"/>
      <point x="195" y="52"/>
      <point x="309" y="52" type="curve" smooth="yes"/>
      <point x="432" y="52"/>
      <point x="547" y="195"/>
      <point x="547" y="365" type="curve" smooth="yes"/>
      <point x="547" y="500"/>
      <point x="463" y="632"/>
    </contour>
  </outline>
</glyph>
<glyph name="Ocircumflex" format="1">
  <advance width="660"/>
  <unicode hex="00D4"/>
  <outline>
    <contour>
      <point x="250" y="718" type="line"/>
      <point x="365" y="806" type="line"/>
      <point x="461" y="719" type="line"/>
      <point x="497" y="759" type="line"/>
      <point x="368" y="881" type="line"/>
      <point x="217" y="760" type="line"/>
    </contour>
    <contour>
      <point x="309" y="0" type="curve" smooth="yes"/>
      <point x="465" y="0"/>
      <point x="600" y="169"/>
      <point x="600" y="369" type="curve" smooth="yes"/>
      <point x="600" y="541"/>
      <point x="495" y="684"/>
      <point x="351" y="684" type="curve" smooth="yes"/>
      <point x="195" y="684"/>
      <point x="60" y="515"/>
      <point x="60" y="315" type="curve" smooth="yes"/>
      <point x="60" y="145"/>
      <point x="164" y="0"/>
    </contour>
    <contour>
      <point x="344" y="632" type="curve" smooth="yes"/>
      <point x="463" y="632"/>
      <point x="547" y="500"/>
      <point x="547" y="365" type="curve" smooth="yes"/>
      <point x="547" y="195"/>
      <point x="432" y="52"/>
      <point x="309" y="52" type="curve" smooth="yes"/>
      <point x="195" y="52"/>
      <point x="113" y="171"/>
      <point x="113" y="315" type="curve" smooth="yes"/>
      <point x="113" y="491"/>
      <point x="221" y="632"/>
    </contour>
  </outline>
</glyph>
<glyph name="multiply" format="1">
  <advance width="354"/>
  <unicode hex="00D7"/>
  <outline>
    <contour>
      <point x="215" y="253" type="line"/>
      <point x="300" y="338" type="line"/>
      <point x="263" y="375" type="line"/>
      <point x="178" y="290" type="line"/>
      <point x="100" y="368" type="line"/>
      <point x="63" y="331" type="line"/>
      <point x="141" y="253" type="line"/>
      <point x="54" y="166" type="line"/>
      <point x="91" y="129" type="line"/>
      <point x="178" y="215" type="line"/>
      <point x="262" y="131" type="line"/>
      <point x="299" y="168" type="line"/>
    </contour>
  </outline>
</glyph>
<glyph name="Oslash" format="1">
  <advance width="660"/>
  <unicode hex="00D8"/>
  <outline>
    <contour>
      <point x="497" y="626" type="curve"/>
      <point x="546" y="714" type="line"/>
      <point x="500" y="741" type="line"/>
      <point x="454" y="656" type="line"/>
      <point x="422" y="674"/>
      <point x="387" y="683"/>
      <point x="351" y="683" type="curve" smooth="yes"/>
      <point x="194" y="683"/>
      <point x="60" y="513"/>
      <point x="60" y="312" type="curve" smooth="yes"/>
      <point x="60" y="224"/>
      <point x="87" y="143"/>
      <point x="136" y="84" type="curve"/>
      <point x="85" y="-7" type="line"/>
      <point x="130" y="-33" type="line"/>
      <point x="175" y="46" type="line"/>
      <point x="214" y="16"/>
      <point x="261" y="-1"/>
      <point x="309" y="-1" type="curve" smooth="yes"/>
      <point x="465" y="-1"/>
      <point x="600" y="168"/>
      <point x="600" y="368" type="curve" smooth="yes"/>
      <point x="600" y="465"/>
      <point x="567" y="567"/>
    </contour>
    <contour>
      <point x="164" y="134" type="line"/>
      <point x="132" y="182"/>
      <point x="113" y="247"/>
      <point x="113" y="315" type="curve" smooth="yes"/>
      <point x="113" y="490"/>
      <point x="222" y="631"/>
      <point x="344" y="631" type="curve" smooth="yes"/>
      <point x="373" y="631"/>
      <point x="401" y="623"/>
      <point x="427" y="608" type="curve"/>
    </contour>
    <contour>
      <point x="309" y="51" type="curve" smooth="yes"/>
      <point x="269" y="51"/>
      <point x="232" y="65"/>
      <point x="200" y="92" type="curve"/>
      <point x="469" y="575" type="line"/>
      <point x="517" y="523"/>
      <point x="547" y="442"/>
      <point x="547" y="364" type="curve" smooth="yes"/>
      <point x="547" y="227"/>
      <point x="456" y="51"/>
    </contour>
  </outline>
</glyph>
<glyph name="Ucircumflex" format="1">
  <advance width="684"/>
  <unicode hex="00DB"/>
  <outline>
    <contour>
      <point x="342" y="0" type="curve" smooth="yes"/>
      <point x="598" y="0"/>
      <point x="618" y="245"/>
      <point x="618" y="476" type="curve" smooth="yes"/>
      <point x="618" y="550"/>
      <point x="617" y="656"/>
      <point x="616" y="680" type="curve"/>
      <point x="560" y="669" type="line"/>
      <point x="561" y="634"/>
      <point x="562" y="514"/>
      <point x="562" y="431" type="curve" smooth="yes"/>
      <point x="562" y="260"/>
      <point x="546" y="49"/>
      <point x="342" y="49" type="curve" smooth="yes"/>
      <point x="145" y="49"/>
      <point x="122" y="241"/>
      <point x="122" y="450" type="curve" smooth="yes"/>
      <point x="122" y="534"/>
      <point x="124" y="658"/>
      <point x="125" y="680" type="curve"/>
      <point x="68" y="670" type="line"/>
      <point x="67" y="640"/>
      <point x="66" y="529"/>
      <point x="66" y="459" type="curve" smooth="yes"/>
      <point x="66" y="197"/>
      <point x="105" y="0"/>
    </contour>
    <contour>
      <point x="239" y="718" type="line"/>
      <point x="354" y="806" type="line"/>
      <point x="449" y="719" type="line"/>
      <point x="485" y="759" type="line"/>
      <point x="356" y="881" type="line"/>
      <point x="206" y="760" type="line"/>
    </contour>
  </outline>
</glyph>
<glyph name="Udieresis" format="1">
  <advance width="684"/>
  <unicode hex="00DC"/>
  <outline>
    <contour>
      <point x="342" y="0" type="curve" smooth="yes"/>
      <point x="598" y="0"/>
      <point x="618" y="245"/>
      <point x="618" y="476" type="curve" smooth="yes"/>
      <point x="618" y="550"/>
      <point x="617" y="656"/>
      <point x="616" y="680" type="curve"/>
      <point x="560" y="669" type="line"/>
      <point x="561" y="634"/>
      <point x="562" y="514"/>
      <point x="562" y="431" type="curve" smooth="yes"/>
      <point x="562" y="260"/>
      <point x="546" y="49"/>
      <point x="342" y="49" type="curve" smooth="yes"/>
      <point x="145" y="49"/>
      <point x="122" y="241"/>
      <point x="122" y="450" type="curve" smooth="yes"/>
      <point x="122" y="534"/>
      <point x="124" y="658"/>
      <point x="125" y="680" type="curve"/>
      <point x="68" y="670" type="line"/>
      <point x="67" y="640"/>
      <point x="66" y="529"/>
      <point x="66" y="459" type="curve" smooth="yes"/>
      <point x="66" y="197"/>
      <point x="105" y="0"/>
    </contour>
    <contour>
      <point x="313" y="819" type="line"/>
      <point x="240" y="809" type="line"/>
      <point x="231" y="727" type="line"/>
      <point x="305" y="737" type="line"/>
    </contour>
    <contour>
      <point x="473" y="819" type="line"/>
      <point x="400" y="809" type="line"/>
      <point x="391" y="727" type="line"/>
      <point x="465" y="737" type="line"/>
    </contour>
  </outline>
</glyph>
<glyph name="Yacute" format="1">
  <advance width="628"/>
  <unicode hex="00DD"/>
  <outline>
    <contour>
      <point x="322" y="266" type="line"/>
      <point x="566" y="677" type="line"/>
      <point x="628" y="677" type="line"/>
      <point x="226" y="0" type="line"/>
      <point x="164" y="0" type="line"/>
      <point x="290" y="214" type="line"/>
      <point x="20" y="677" type="line"/>
      <point x="82" y="677" type="line"/>
    </contour>
    <contour>
      <point x="236" y="771" type="line"/>
      <point x="386" y="893" type="line"/>
      <point x="439" y="848" type="line"/>
      <point x="277" y="736" type="line"/>
    </contour>
  </outline>
</glyph>
<glyph name="germandbls" format="1">
  <advance width="525"/>
  <unicode hex="00DF"/>
  <outline>
    <contour>
      <point x="341" y="361" type="curve"/>
      <point x="371" y="392"/>
      <point x="390" y="433"/>
      <point x="390" y="477" type="curve" smooth="yes"/>
      <point x="390" y="567"/>
      <point x="317" y="640"/>
      <point x="228" y="640" type="curve" smooth="yes"/>
      <point x="138" y="640"/>
      <point x="65" y="567"/>
      <point x="65" y="477" type="curve" smooth="yes"/>
      <point x="65" y="0" type="line"/>
      <point x="117" y="26" type="line"/>
      <point x="117" y="477" type="line" smooth="yes"/>
      <point x="117" y="538"/>
      <point x="167" y="588"/>
      <point x="228" y="588" type="curve" smooth="yes"/>
      <point x="289" y="588"/>
      <point x="338" y="538"/>
      <point x="338" y="477" type="curve" smooth="yes"/>
      <point x="338" y="429"/>
      <point x="312" y="377"/>
      <point x="220" y="364" type="curve"/>
      <point x="204" y="310" type="line"/>
      <point x="265" y="319"/>
      <point x="273" y="320"/>
      <point x="281" y="320" type="curve" smooth="yes"/>
      <point x="366" y="320"/>
      <point x="423" y="246"/>
      <point x="423" y="174" type="curve" smooth="yes"/>
      <point x="423" y="94"/>
      <point x="356" y="28"/>
      <point x="278" y="28" type="curve" smooth="yes"/>
      <point x="254" y="28"/>
      <point x="230" y="34"/>
      <point x="190" y="56" type="curve"/>
      <point x="166" y="10" type="line"/>
      <point x="214" y="-16"/>
      <point x="245" y="-24"/>
      <point x="278" y="-24" type="curve" smooth="yes"/>
      <point x="387" y="-24"/>
      <point x="475" y="68"/>
      <point x="475" y="175" type="curve" smooth="yes"/>
      <point x="475" y="263"/>
      <point x="419" y="335"/>
    </contour>
  </outline>
</glyph>
<glyph name="atilde" format="1">
  <advance width="513"/>
  <unicode hex="00E3"/>
  <outline>
    <contour>
      <point x="439" y="472" type="curve"/>
      <point x="439" y="11" type="line"/>
      <point x="383" y="0" type="line"/>
      <point x="383" y="54" type="line"/>
      <point x="348" y="33"/>
      <point x="294" y="7"/>
      <point x="238" y="7" type="curve" smooth="yes"/>
      <point x="129" y="7"/>
      <point x="50" y="95"/>
      <point x="50" y="223" type="curve" smooth="yes"/>
      <point x="50" y="326"/>
      <point x="114" y="513"/>
      <point x="287" y="513" type="curve" smooth="yes"/>
      <point x="342" y="513"/>
      <point x="394" y="495"/>
    </contour>
    <contour>
      <point x="236" y="62" type="curve"/>
      <point x="296" y="62"/>
      <point x="359" y="103"/>
      <point x="381" y="120" type="curve"/>
      <point x="386" y="436" type="line"/>
      <point x="367" y="444"/>
      <point x="326" y="458"/>
      <point x="292" y="458" type="curve" smooth="yes"/>
      <point x="155" y="458"/>
      <point x="107" y="309"/>
      <point x="107" y="225" type="curve" smooth="yes"/>
      <point x="107" y="153"/>
      <point x="141" y="64"/>
    </contour>
    <contour>
      <point x="335" y="597" type="curve" smooth="yes"/>
      <point x="368" y="597"/>
      <point x="390" y="659"/>
      <point x="399" y="688" type="curve"/>
      <point x="448" y="672" type="line"/>
      <point x="433" y="607"/>
      <point x="386" y="556"/>
      <point x="335" y="556" type="curve" smooth="yes"/>
      <point x="290" y="556"/>
      <point x="266" y="588"/>
      <point x="246" y="616" type="curve" smooth="yes"/>
      <point x="227" y="642"/>
      <point x="216" y="664"/>
      <point x="199" y="664" type="curve" smooth="yes"/>
      <point x="168" y="664"/>
      <point x="144" y="605"/>
      <point x="138" y="580" type="curve"/>
      <point x="89" y="598" type="line"/>
      <point x="105" y="648"/>
      <point x="138" y="705"/>
      <point x="199" y="705" type="curve" smooth="yes"/>
      <point x="245" y="705"/>
      <point x="269" y="672"/>
      <point x="288" y="646" type="curve" smooth="yes"/>
      <point x="307" y="620"/>
      <point x="318" y="597"/>
    </contour>
  </outline>
</glyph>
<glyph name="ae" format="1">
  <advance width="864"/>
  <unicode hex="00E6"/>
  <outline>
    <contour>
      <point x="629" y="0" type="curve" smooth="yes"/>
      <point x="694" y="0"/>
      <point x="756" y="27"/>
      <point x="802" y="76" type="curve"/>
      <point x="765" y="111" type="line"/>
      <point x="728" y="72"/>
      <point x="680" y="51"/>
      <point x="629" y="51" type="curve" smooth="yes"/>
      <point x="555" y="51"/>
      <point x="491" y="95"/>
      <point x="460" y="159" type="curve"/>
      <point x="814" y="355" type="line"/>
      <point x="791" y="435"/>
      <point x="718" y="502"/>
      <point x="629" y="502" type="curve" smooth="yes"/>
      <point x="551" y="502"/>
      <point x="483" y="464"/>
      <point x="439" y="406" type="curve"/>
      <point x="439" y="472" type="line"/>
      <point x="394" y="495"/>
      <point x="342" y="513"/>
      <point x="287" y="513" type="curve" smooth="yes"/>
      <point x="114" y="513"/>
      <point x="50" y="326"/>
      <point x="50" y="223" type="curve" smooth="yes"/>
      <point x="50" y="95"/>
      <point x="129" y="7"/>
      <point x="238" y="7" type="curve" smooth="yes"/>
      <point x="294" y="7"/>
      <point x="348" y="33"/>
      <point x="383" y="54" type="curve"/>
      <point x="383" y="0" type="line"/>
      <point x="439" y="11" type="line"/>
      <point x="439" y="95" type="line"/>
      <point x="483" y="37"/>
      <point x="552" y="0"/>
    </contour>
    <contour>
      <point x="236" y="62" type="curve"/>
      <point x="141" y="64"/>
      <point x="107" y="153"/>
      <point x="107" y="225" type="curve" smooth="yes"/>
      <point x="107" y="309"/>
      <point x="155" y="458"/>
      <point x="292" y="458" type="curve" smooth="yes"/>
      <point x="326" y="458"/>
      <point x="367" y="444"/>
      <point x="386" y="436" type="curve"/>
      <point x="381" y="120" type="line"/>
      <point x="359" y="103"/>
      <point x="296" y="62"/>
    </contour>
    <contour>
      <point x="630" y="451" type="curve" smooth="yes"/>
      <point x="677" y="451"/>
      <point x="722" y="424"/>
      <point x="748" y="378" type="curve"/>
      <point x="444" y="208" type="line"/>
      <point x="441" y="222"/>
      <point x="439" y="236"/>
      <point x="439" y="251" type="curve" smooth="yes"/>
      <point x="439" y="357"/>
      <point x="521" y="451"/>
    </contour>
  </outline>
</glyph>
<glyph name="egrave" format="1">
  <advance width="527"/>
  <unicode hex="00E8"/>
  <outline>
    <contour>
      <point x="351" y="585" type="line"/>
      <point x="305" y="557" type="line"/>
      <point x="165" y="697" type="line"/>
      <point x="225" y="731" type="line"/>
    </contour>
    <contour>
      <point x="292" y="0" type="curve" smooth="yes"/>
      <point x="158" y="0"/>
      <point x="50" y="113"/>
      <point x="50" y="251" type="curve" smooth="yes"/>
      <point x="50" y="388"/>
      <point x="157" y="502"/>
      <point x="292" y="502" type="curve" smooth="yes"/>
      <point x="381" y="502"/>
      <point x="454" y="435"/>
      <point x="477" y="355" type="curve"/>
      <point x="123" y="159" type="line"/>
      <point x="154" y="95"/>
      <point x="218" y="51"/>
      <point x="292" y="51" type="curve" smooth="yes"/>
      <point x="343" y="51"/>
      <point x="391" y="72"/>
      <point x="428" y="111" type="curve"/>
      <point x="465" y="76" type="line"/>
      <point x="419" y="27"/>
      <point x="357" y="0"/>
    </contour>
    <contour>
      <point x="292" y="451" type="curve" smooth="yes"/>
      <point x="183" y="451"/>
      <point x="101" y="357"/>
      <point x="101" y="251" type="curve" smooth="yes"/>
      <point x="101" y="236"/>
      <point x="103" y="222"/>
      <point x="106" y="208" type="curve"/>
      <point x="410" y="378" type="line"/>
      <point x="384" y="424"/>
      <point x="339" y="451"/>
    </contour>
  </outline>
</glyph>
<glyph name="ecircumflex" format="1">
  <advance width="527"/>
  <unicode hex="00EA"/>
  <outline>
    <contour>
      <point x="292" y="0" type="curve" smooth="yes"/>
      <point x="357" y="0"/>
      <point x="419" y="27"/>
      <point x="465" y="76" type="curve"/>
      <point x="428" y="111" type="line"/>
      <point x="391" y="72"/>
      <point x="343" y="51"/>
      <point x="292" y="51" type="curve" smooth="yes"/>
      <point x="218" y="51"/>
      <point x="154" y="95"/>
      <point x="123" y="159" type="curve"/>
      <point x="477" y="355" type="line"/>
      <point x="454" y="435"/>
      <point x="381" y="502"/>
      <point x="292" y="502" type="curve" smooth="yes"/>
      <point x="157" y="502"/>
      <point x="50" y="388"/>
      <point x="50" y="251" type="curve" smooth="yes"/>
      <point x="50" y="113"/>
      <point x="158" y="0"/>
    </contour>
    <contour>
      <point x="292" y="451" type="curve" smooth="yes"/>
      <point x="339" y="451"/>
      <point x="384" y="424"/>
      <point x="410" y="378" type="curve"/>
      <point x="106" y="208" type="line"/>
      <point x="103" y="222"/>
      <point x="101" y="236"/>
      <point x="101" y="251" type="curve" smooth="yes"/>
      <point x="101" y="357"/>
      <point x="183" y="451"/>
    </contour>
    <contour>
      <point x="158" y="549" type="line"/>
      <point x="272" y="637" type="line"/>
      <point x="368" y="550" type="line"/>
      <point x="404" y="590" type="line"/>
      <point x="275" y="712" type="line"/>
      <point x="125" y="591" type="line"/>
    </contour>
  </outline>
</glyph>
<glyph name="igrave" format="1">
  <advance width="217"/>
  <unicode hex="00EC"/>
  <outline>
    <contour>
      <point x="187" y="585" type="line"/>
      <point x="61" y="731" type="line"/>
      <point x="1" y="697" type="line"/>
      <point x="141" y="557" type="line"/>
    </contour>
    <contour>
      <point x="77" y="491" type="line"/>
      <point x="77" y="0" type="line"/>
      <point x="136" y="10" type="line"/>
      <point x="136" y="500" type="line"/>
    </contour>
  </outline>
</glyph>
<glyph name="iacute" format="1">
  <advance width="205"/>
  <unicode hex="00ED"/>
  <outline>
    <contour>
      <point x="65" y="491" type="line"/>
      <point x="65" y="0" type="line"/>
      <point x="124" y="10" type="line"/>
      <point x="124" y="500" type="line"/>
    </contour>
    <contour>
      <point x="24" y="602" type="line"/>
      <point x="64" y="567" type="line"/>
      <point x="226" y="679" type="line"/>
      <point x="174" y="724" type="line"/>
    </contour>
  </outline>
</glyph>
<glyph name="idieresis" format="1">
  <advance width="246"/>
  <unicode hex="00EF"/>
  <outline>
    <contour>
      <point x="93" y="491" type="line"/>
      <point x="93" y="0" type="line"/>
      <point x="152" y="10" type="line"/>
      <point x="152" y="500" type="line"/>
    </contour>
    <contour>
      <point x="95" y="663" type="line"/>
      <point x="22" y="653" type="line"/>
      <point x="13" y="571" type="line"/>
      <point x="87" y="581" type="line"/>
    </contour>
    <contour>
      <point x="255" y="663" type="line"/>
      <point x="182" y="653" type="line"/>
      <point x="173" y="571" type="line"/>
      <point x="247" y="581" type="line"/>
    </contour>
  </outline>
</glyph>
<glyph name="eth" format="1">
  <advance width="482"/>
  <unicode hex="00F0"/>
  <outline>
    <contour>
      <point x="275" y="583" type="curve"/>
      <point x="309" y="602"/>
      <point x="357" y="626"/>
      <point x="385" y="638" type="curve"/>
      <point x="371" y="674" type="line"/>
      <point x="333" y="659"/>
      <point x="283" y="633"/>
      <point x="247" y="613" type="curve"/>
      <point x="225" y="635"/>
      <point x="198" y="660"/>
      <point x="187" y="668" type="curve"/>
      <point x="154" y="630" type="line"/>
      <point x="158" y="627"/>
      <point x="179" y="608"/>
      <point x="201" y="587" type="curve"/>
      <point x="169" y="568"/>
      <point x="125" y="541"/>
      <point x="93" y="520" type="curve"/>
      <point x="112" y="484" type="line"/>
      <point x="122" y="492"/>
      <point x="179" y="529"/>
      <point x="230" y="557" type="curve"/>
      <point x="260" y="524"/>
      <point x="295" y="482"/>
      <point x="323" y="435" type="curve"/>
      <point x="161" y="429"/>
      <point x="50" y="328"/>
      <point x="50" y="177" type="curve" smooth="yes"/>
      <point x="50" y="72"/>
      <point x="122" y="0"/>
      <point x="215" y="0" type="curve" smooth="yes"/>
      <point x="350" y="0"/>
      <point x="432" y="128"/>
      <point x="432" y="255" type="curve" smooth="yes"/>
      <point x="432" y="381"/>
      <point x="356" y="497"/>
    </contour>
    <contour>
      <point x="215" y="51" type="curve" smooth="yes"/>
      <point x="150" y="51"/>
      <point x="101" y="99"/>
      <point x="101" y="176" type="curve" smooth="yes"/>
      <point x="101" y="323"/>
      <point x="209" y="385"/>
      <point x="350" y="385" type="curve"/>
      <point x="369" y="345"/>
      <point x="381" y="301"/>
      <point x="381" y="258" type="curve" smooth="yes"/>
      <point x="381" y="158"/>
      <point x="320" y="51"/>
    </contour>
  </outline>
</glyph>
<glyph name="ntilde" format="1">
  <advance width="536"/>
  <unicode hex="00F1"/>
  <outline>
    <contour>
      <point x="121" y="502" type="line"/>
      <point x="65" y="492" type="line"/>
      <point x="65" y="0" type="line"/>
      <point x="120" y="11" type="line"/>
      <point x="121" y="112" type="line" smooth="yes"/>
      <point x="121" y="182"/>
      <point x="143" y="265"/>
      <point x="176" y="327" type="curve" smooth="yes"/>
      <point x="229" y="426"/>
      <point x="282" y="446"/>
      <point x="326" y="446" type="curve" smooth="yes"/>
      <point x="369" y="446"/>
      <point x="389" y="428"/>
      <point x="401" y="379" type="curve" smooth="yes"/>
      <point x="416" y="322"/>
      <point x="415" y="226"/>
      <point x="416" y="114" type="curve" smooth="yes"/>
      <point x="417" y="0" type="line"/>
      <point x="471" y="12" type="line"/>
      <point x="470" y="115" type="line" smooth="yes"/>
      <point x="469" y="248"/>
      <point x="469" y="332"/>
      <point x="454" y="393" type="curve" smooth="yes"/>
      <point x="436" y="465"/>
      <point x="394" y="501"/>
      <point x="326" y="501" type="curve" smooth="yes"/>
      <point x="225" y="501"/>
      <point x="142" y="411"/>
      <point x="121" y="297" type="curve"/>
    </contour>
    <contour>
      <point x="358" y="597" type="curve" smooth="yes"/>
      <point x="341" y="597"/>
      <point x="330" y="620"/>
      <point x="311" y="646" type="curve" smooth="yes"/>
      <point x="292" y="672"/>
      <point x="268" y="705"/>
      <point x="222" y="705" type="curve" smooth="yes"/>
      <point x="161" y="705"/>
      <point x="128" y="648"/>
      <point x="112" y="598" type="curve"/>
      <point x="161" y="580" type="line"/>
      <point x="167" y="605"/>
      <point x="191" y="664"/>
      <point x="222" y="664" type="curve" smooth="yes"/>
      <point x="239" y="664"/>
      <point x="250" y="642"/>
      <point x="269" y="616" type="curve" smooth="yes"/>
      <point x="289" y="588"/>
      <point x="313" y="556"/>
      <point x="358" y="556" type="curve" smooth="yes"/>
      <point x="409" y="556"/>
      <point x="456" y="607"/>
      <point x="471" y="672" type="curve"/>
      <point x="422" y="688" type="line"/>
      <point x="413" y="659"/>
      <point x="391" y="597"/>
    </contour>
  </outline>
</glyph>
<glyph name="ograve" format="1">
  <advance width="535"/>
  <unicode hex="00F2"/>
  <outline>
    <contour>
      <point x="369" y="585" type="line"/>
      <point x="323" y="557" type="line"/>
      <point x="183" y="697" type="line"/>
      <point x="243" y="731" type="line"/>
    </contour>
    <contour>
      <point x="252" y="0" type="curve" smooth="yes"/>
      <point x="137" y="0"/>
      <point x="50" y="104"/>
      <point x="50" y="230" type="curve" smooth="yes"/>
      <point x="50" y="376"/>
      <point x="157" y="500"/>
      <point x="283" y="500" type="curve" smooth="yes"/>
      <point x="397" y="500"/>
      <point x="485" y="394"/>
      <point x="485" y="270" type="curve" smooth="yes"/>
      <point x="485" y="123"/>
      <point x="378" y="0"/>
    </contour>
    <contour>
      <point x="278" y="452" type="curve" smooth="yes"/>
      <point x="185" y="452"/>
      <point x="107" y="349"/>
      <point x="107" y="232" type="curve" smooth="yes"/>
      <point x="107" y="133"/>
      <point x="165" y="48"/>
      <point x="252" y="48" type="curve" smooth="yes"/>
      <point x="343" y="48"/>
      <point x="427" y="149"/>
      <point x="427" y="265" type="curve" smooth="yes"/>
      <point x="427" y="365"/>
      <point x="361" y="452"/>
    </contour>
  </outline>
</glyph>
<glyph name="otilde" format="1">
  <advance width="535"/>
  <unicode hex="00F5"/>
  <outline>
    <contour>
      <point x="355" y="597" type="curve" smooth="yes"/>
      <point x="338" y="597"/>
      <point x="327" y="620"/>
      <point x="308" y="646" type="curve" smooth="yes"/>
      <point x="289" y="672"/>
      <point x="265" y="705"/>
      <point x="219" y="705" type="curve" smooth="yes"/>
      <point x="158" y="705"/>
      <point x="125" y="648"/>
      <point x="109" y="598" type="curve"/>
      <point x="158" y="580" type="line"/>
      <point x="164" y="605"/>
      <point x="188" y="664"/>
      <point x="219" y="664" type="curve" smooth="yes"/>
      <point x="236" y="664"/>
      <point x="247" y="642"/>
      <point x="266" y="616" type="curve" smooth="yes"/>
      <point x="286" y="588"/>
      <point x="310" y="556"/>
      <point x="355" y="556" type="curve" smooth="yes"/>
      <point x="406" y="556"/>
      <point x="453" y="607"/>
      <point x="468" y="672" type="curve"/>
      <point x="419" y="688" type="line"/>
      <point x="410" y="659"/>
      <point x="388" y="597"/>
    </contour>
    <contour>
      <point x="252" y="0" type="curve" smooth="yes"/>
      <point x="378" y="0"/>
      <point x="485" y="123"/>
      <point x="485" y="270" type="curve" smooth="yes"/>
      <point x="485" y="394"/>
      <point x="397" y="500"/>
      <point x="283" y="500" type="curve" smooth="yes"/>
      <point x="157" y="500"/>
      <point x="50" y="376"/>
      <point x="50" y="230" type="curve" smooth="yes"/>
      <point x="50" y="104"/>
      <point x="137" y="0"/>
    </contour>
    <contour>
      <point x="278" y="452" type="curve" smooth="yes"/>
      <point x="361" y="452"/>
      <point x="427" y="365"/>
      <point x="427" y="265" type="curve" smooth="yes"/>
      <point x="427" y="149"/>
      <point x="343" y="48"/>
      <point x="252" y="48" type="curve" smooth="yes"/>
      <point x="165" y="48"/>
      <point x="107" y="133"/>
      <point x="107" y="232" type="curve" smooth="yes"/>
      <point x="107" y="349"/>
      <point x="185" y="452"/>
    </contour>
  </outline>
</glyph>
<glyph name="odieresis" format="1">
  <advance width="535"/>
  <unicode hex="00F6"/>
  <outline>
    <contour>
      <point x="255" y="663" type="line"/>
      <point x="182" y="653" type="line"/>
      <point x="173" y="571" type="line"/>
      <point x="247" y="581" type="line"/>
    </contour>
    <contour>
      <point x="415" y="663" type="line"/>
      <point x="342" y="653" type="line"/>
      <point x="333" y="571" type="line"/>
      <point x="407" y="581" type="line"/>
    </contour>
    <contour>
      <point x="252" y="0" type="curve" smooth="yes"/>
      <point x="378" y="0"/>
      <point x="485" y="123"/>
      <point x="485" y="270" type="curve" smooth="yes"/>
      <point x="485" y="394"/>
      <point x="397" y="500"/>
      <point x="283" y="500" type="curve" smooth="yes"/>
      <point x="157" y="500"/>
      <point x="50" y="376"/>
      <point x="50" y="230" type="curve" smooth="yes"/>
      <point x="50" y="104"/>
      <point x="137" y="0"/>
    </contour>
    <contour>
      <point x="278" y="452" type="curve" smooth="yes"/>
      <point x="361" y="452"/>
      <point x="427" y="365"/>
      <point x="427" y="265" type="curve" smooth="yes"/>
      <point x="427" y="149"/>
      <point x="343" y="48"/>
      <point x="252" y="48" type="curve" smooth="yes"/>
      <point x="165" y="48"/>
      <point x="107" y="133"/>
      <point x="107" y="232" type="curve" smooth="yes"/>
      <point x="107" y="349"/>
      <point x="185" y="452"/>
    </contour>
  </outline>
</glyph>
<glyph name="divide" format="1">
  <advance width="407"/>
  <unicode hex="00F7"/>
  <outline>
    <contour>
      <point x="54" y="234" type="line"/>
      <point x="343" y="234" type="line"/>
      <point x="353" y="286" type="line"/>
      <point x="64" y="286" type="line"/>
    </contour>
    <contour>
      <point x="227" y="204" type="line"/>
      <point x="170" y="196" type="line"/>
      <point x="163" y="132" type="line"/>
      <point x="221" y="140" type="line"/>
    </contour>
    <contour>
      <point x="242" y="388" type="line"/>
      <point x="185" y="380" type="line"/>
      <point x="178" y="317" type="line"/>
      <point x="236" y="324" type="line"/>
    </contour>
  </outline>
</glyph>
<glyph name="oslash" format="1">
  <advance width="535"/>
  <unicode hex="00F8"/>
  <outline>
    <contour>
      <point x="408" y="451" type="line"/>
      <point x="459" y="409"/>
      <point x="485" y="338"/>
      <point x="485" y="270" type="curve" smooth="yes"/>
      <point x="485" y="123"/>
      <point x="378" y="0"/>
      <point x="252" y="0" type="curve" smooth="yes"/>
      <point x="219" y="0"/>
      <point x="187" y="9"/>
      <point x="158" y="25" type="curve"/>
      <point x="123" y="-35" type="line"/>
      <point x="79" y="-9" type="line"/>
      <point x="118" y="56" type="line"/>
      <point x="75" y="99"/>
      <point x="50" y="161"/>
      <point x="50" y="229" type="curve" smooth="yes"/>
      <point x="50" y="375"/>
      <point x="156" y="500"/>
      <point x="283" y="500" type="curve" smooth="yes"/>
      <point x="312" y="500"/>
      <point x="340" y="493"/>
      <point x="366" y="480" type="curve"/>
      <point x="403" y="545" type="line"/>
      <point x="447" y="519" type="line"/>
    </contour>
    <contour>
      <point x="145" y="104" type="curve"/>
      <point x="340" y="436" type="line"/>
      <point x="320" y="446"/>
      <point x="299" y="452"/>
      <point x="278" y="452" type="curve" smooth="yes"/>
      <point x="184" y="452"/>
      <point x="107" y="348"/>
      <point x="107" y="230" type="curve" smooth="yes"/>
      <point x="107" y="184"/>
      <point x="121" y="138"/>
    </contour>
    <contour>
      <point x="252" y="48" type="curve" smooth="yes"/>
      <point x="351" y="48"/>
      <point x="427" y="160"/>
      <point x="427" y="263" type="curve" smooth="yes"/>
      <point x="427" y="315"/>
      <point x="409" y="367"/>
      <point x="379" y="402" type="curve"/>
      <point x="183" y="68" type="line"/>
      <point x="204" y="55"/>
      <point x="227" y="48"/>
    </contour>
  </outline>
</glyph>
<glyph name="uacute" format="1">
  <advance width="516"/>
  <unicode hex="00FA"/>
  <outline>
    <contour>
      <point x="120" y="289" type="curve" smooth="yes"/>
      <point x="121" y="168"/>
      <point x="117" y="43"/>
      <point x="219" y="43" type="curve" smooth="yes"/>
      <point x="288" y="43"/>
      <point x="359" y="92"/>
      <point x="380" y="116" type="curve" smooth="yes"/>
      <point x="387" y="124"/>
      <point x="393" y="138"/>
      <point x="393" y="159" type="curve" smooth="yes"/>
      <point x="398" y="494" type="line"/>
      <point x="451" y="504" type="line"/>
      <point x="451" y="10" type="line"/>
      <point x="389" y="0" type="line"/>
      <point x="389" y="74" type="line"/>
      <point x="364" y="36"/>
      <point x="296" y="-6"/>
      <point x="218" y="-6" type="curve" smooth="yes"/>
      <point x="66.9742" y="-6"/>
      <point x="65.9998" y="143.077"/>
      <point x="65.9998" y="283.498" type="curve" smooth="yes"/>
      <point x="65.9998" y="285.334"/>
      <point x="66" y="287.168"/>
      <point x="66" y="289" type="curve" smooth="yes"/>
      <point x="66" y="334"/>
      <point x="70" y="426"/>
      <point x="82" y="494" type="curve"/>
      <point x="137" y="504" type="line"/>
      <point x="134" y="488"/>
      <point x="120" y="374"/>
    </contour>
    <contour>
      <point x="184" y="602" type="line"/>
      <point x="334" y="724" type="line"/>
      <point x="386" y="679" type="line"/>
      <point x="224" y="567" type="line"/>
    </contour>
  </outline>
</glyph>
<glyph name="ucircumflex" format="1">
  <advance width="516"/>
  <unicode hex="00FB"/>
  <outline>
    <contour>
      <point x="120" y="289" type="curve" smooth="yes"/>
      <point x="120" y="374"/>
      <point x="134" y="488"/>
      <point x="137" y="504" type="curve"/>
      <point x="82" y="494" type="line"/>
      <point x="70" y="426"/>
      <point x="66" y="334"/>
      <point x="66" y="289" type="curve" smooth="yes"/>
      <point x="66" y="147"/>
      <point x="65" y="-6"/>
      <point x="218" y="-6" type="curve" smooth="yes"/>
      <point x="296" y="-6"/>
      <point x="364" y="36"/>
      <point x="389" y="74" type="curve"/>
      <point x="389" y="0" type="line"/>
      <point x="451" y="10" type="line"/>
      <point x="451" y="504" type="line"/>
      <point x="398" y="494" type="line"/>
      <point x="393" y="159" type="line" smooth="yes"/>
      <point x="393" y="138"/>
      <point x="387" y="124"/>
      <point x="380" y="116" type="curve" smooth="yes"/>
      <point x="359" y="92"/>
      <point x="288" y="43"/>
      <point x="219" y="43" type="curve" smooth="yes"/>
      <point x="117" y="43"/>
      <point x="121" y="168"/>
    </contour>
    <contour>
      <point x="166" y="549" type="line"/>
      <point x="281" y="637" type="line"/>
      <point x="377" y="550" type="line"/>
      <point x="413" y="590" type="line"/>
      <point x="284" y="712" type="line"/>
      <point x="133" y="591" type="line"/>
    </contour>
  </outline>
</glyph>
<glyph name="udieresis" format="1">
  <advance width="516"/>
  <unicode hex="00FC"/>
  <outline>
    <contour>
      <point x="120" y="289" type="curve" smooth="yes"/>
      <point x="120" y="374"/>
      <point x="134" y="488"/>
      <point x="137" y="504" type="curve"/>
      <point x="82" y="494" type="line"/>
      <point x="70" y="426"/>
      <point x="66" y="334"/>
      <point x="66" y="289" type="curve" smooth="yes"/>
      <point x="66" y="147"/>
      <point x="65" y="-6"/>
      <point x="218" y="-6" type="curve" smooth="yes"/>
      <point x="296" y="-6"/>
      <point x="364" y="36"/>
      <point x="389" y="74" type="curve"/>
      <point x="389" y="0" type="line"/>
      <point x="451" y="10" type="line"/>
      <point x="451" y="504" type="line"/>
      <point x="398" y="494" type="line"/>
      <point x="393" y="159" type="line" smooth="yes"/>
      <point x="393" y="138"/>
      <point x="387" y="124"/>
      <point x="380" y="116" type="curve" smooth="yes"/>
      <point x="359" y="92"/>
      <point x="288" y="43"/>
      <point x="219" y="43" type="curve" smooth="yes"/>
      <point x="117" y="43"/>
      <point x="121" y="168"/>
    </contour>
    <contour>
      <point x="233" y="663" type="line"/>
      <point x="160" y="653" type="line"/>
      <point x="151" y="571" type="line"/>
      <point x="225" y="581" type="line"/>
    </contour>
    <contour>
      <point x="394" y="663" type="line"/>
      <point x="321" y="653" type="line"/>
      <point x="312" y="571" type="line"/>
      <point x="386" y="581" type="line"/>
    </contour>
  </outline>
</glyph>
<glyph name="ydieresis" format="1">
  <advance width="500"/>
  <unicode hex="00FF"/>
  <outline>
    <contour>
      <point x="429" y="500" type="line"/>
      <point x="256" y="127" type="line"/>
      <point x="70" y="499" type="line"/>
      <point x="20" y="474" type="line"/>
      <point x="226" y="61" type="line"/>
      <point x="117" y="-173" type="line"/>
      <point x="168" y="-197" type="line"/>
      <point x="480" y="476" type="line"/>
    </contour>
    <contour>
      <point x="217" y="663" type="line"/>
      <point x="144" y="653" type="line"/>
      <point x="135" y="571" type="line"/>
      <point x="209" y="581" type="line"/>
    </contour>
    <contour>
      <point x="377" y="663" type="line"/>
      <point x="304" y="653" type="line"/>
      <point x="295" y="571" type="line"/>
      <point x="369" y="581" type="line"/>
    </contour>
  </outline>
</glyph>
<glyph name="Abreve" format="1">
  <advance width="623"/>
  <unicode hex="0102"/>
  <outline>
    <contour>
      <point x="360" y="680" type="line"/>
      <point x="573" y="33" type="line"/>
      <point x="526" y="1" type="line"/>
      <point x="440" y="261" type="line"/>
      <point x="176" y="206" type="line"/>
      <point x="99" y="0" type="line"/>
      <point x="50" y="26" type="line"/>
      <point x="112" y="192" type="line"/>
      <point x="71" y="184" type="line"/>
      <point x="60" y="238" type="line"/>
      <point x="135" y="253" type="line"/>
      <point x="290" y="667" type="line"/>
    </contour>
    <contour>
      <point x="199" y="267" type="line"/>
      <point x="423" y="313" type="line"/>
      <point x="326" y="607" type="line"/>
    </contour>
    <contour>
      <point x="336" y="785" type="curve" smooth="yes"/>
      <point x="399" y="785"/>
      <point x="428" y="814"/>
      <point x="446" y="863" type="curve"/>
      <point x="477" y="832" type="line"/>
      <point x="458" y="777"/>
      <point x="398" y="739"/>
      <point x="335" y="739" type="curve" smooth="yes"/>
      <point x="265" y="739"/>
      <point x="207" y="775"/>
      <point x="183" y="828" type="curve"/>
      <point x="213" y="858" type="line"/>
      <point x="247" y="797"/>
      <point x="299" y="785"/>
    </contour>
  </outline>
</glyph>
<glyph name="Aogonek" format="1">
  <advance width="637"/>
  <unicode hex="0104"/>
  <outline>
    <contour>
      <point x="579" y="15" type="line"/>
      <point x="360" y="680" type="line"/>
      <point x="290" y="667" type="line"/>
      <point x="135" y="253" type="line"/>
      <point x="60" y="238" type="line"/>
      <point x="71" y="184" type="line"/>
      <point x="112" y="192" type="line"/>
      <point x="50" y="26" type="line"/>
      <point x="99" y="0" type="line"/>
      <point x="176" y="206" type="line"/>
      <point x="440" y="261" type="line"/>
      <point x="518" y="24" type="line"/>
      <point x="479" y="-2"/>
      <point x="438" y="-47"/>
      <point x="438" y="-100" type="curve" smooth="yes"/>
      <point x="438" y="-158"/>
      <point x="482" y="-201"/>
      <point x="541" y="-201" type="curve" smooth="yes"/>
      <point x="582" y="-201"/>
      <point x="622" y="-180"/>
      <point x="639" y="-159" type="curve"/>
      <point x="615" y="-127" type="line"/>
      <point x="592" y="-145"/>
      <point x="573" y="-158"/>
      <point x="541" y="-158" type="curve" smooth="yes"/>
      <point x="507" y="-158"/>
      <point x="480" y="-135"/>
      <point x="480" y="-101" type="curve" smooth="yes"/>
      <point x="480" y="-57"/>
      <point x="519" y="-29"/>
      <point x="543" y="-11" type="curve" smooth="yes"/>
    </contour>
    <contour>
      <point x="199" y="267" type="line"/>
      <point x="326" y="607" type="line"/>
      <point x="423" y="313" type="line"/>
    </contour>
  </outline>
</glyph>
<glyph name="Cacute" format="1">
  <advance width="631"/>
  <unicode hex="0106"/>
  <outline>
    <contour>
      <point x="334" y="-1" type="curve" smooth="yes"/>
      <point x="180" y="-1"/>
      <point x="51" y="125"/>
      <point x="51" y="291" type="curve" smooth="yes"/>
      <point x="51" y="452"/>
      <point x="169" y="681"/>
      <point x="346" y="681" type="curve" smooth="yes"/>
      <point x="402" y="681"/>
      <point x="453" y="665"/>
      <point x="493" y="635" type="curve"/>
      <point x="493" y="658" type="line"/>
      <point x="539" y="658" type="line"/>
      <point x="539" y="539" type="line"/>
      <point x="493" y="539" type="line"/>
      <point x="493" y="564" type="line"/>
      <point x="466" y="594"/>
      <point x="421" y="628"/>
      <point x="340" y="628" type="curve" smooth="yes"/>
      <point x="209" y="628"/>
      <point x="103" y="426"/>
      <point x="103" y="293" type="curve" smooth="yes"/>
      <point x="103" y="161"/>
      <point x="206" y="52"/>
      <point x="334" y="52" type="curve" smooth="yes"/>
      <point x="428" y="52"/>
      <point x="503" y="94"/>
      <point x="542" y="170" type="curve"/>
      <point x="581" y="131" type="line"/>
      <point x="531" y="49"/>
      <point x="438" y="-1"/>
    </contour>
    <contour>
      <point x="252" y="771" type="line"/>
      <point x="402" y="893" type="line"/>
      <point x="454" y="848" type="line"/>
      <point x="292" y="736" type="line"/>
    </contour>
  </outline>
</glyph>
<glyph name="dcroat" format="1">
  <advance width="550"/>
  <unicode hex="0111"/>
  <outline>
    <contour>
      <point x="404" y="687" type="line"/>
      <point x="402" y="605" type="line"/>
      <point x="313" y="605" type="line"/>
      <point x="303" y="553" type="line"/>
      <point x="401" y="553" type="line"/>
      <point x="399" y="464" type="line"/>
      <point x="367" y="479"/>
      <point x="325" y="495"/>
      <point x="270" y="495" type="curve" smooth="yes"/>
      <point x="78" y="495"/>
      <point x="51" y="315"/>
      <point x="51" y="226" type="curve" smooth="yes"/>
      <point x="51" y="117"/>
      <point x="104" y="6"/>
      <point x="221" y="6" type="curve" smooth="yes"/>
      <point x="300" y="6"/>
      <point x="356" y="48"/>
      <point x="391" y="80" type="curve"/>
      <point x="389" y="0" type="line"/>
      <point x="445" y="10" type="line"/>
      <point x="457" y="553" type="line"/>
      <point x="549" y="553" type="line"/>
      <point x="559" y="605" type="line"/>
      <point x="459" y="605" type="line"/>
      <point x="461" y="697" type="line"/>
    </contour>
    <contour>
      <point x="393" y="162" type="line" smooth="yes"/>
      <point x="392" y="131"/>
      <point x="323" y="55"/>
      <point x="221" y="55" type="curve" smooth="yes"/>
      <point x="126" y="55"/>
      <point x="106" y="163"/>
      <point x="106" y="229" type="curve" smooth="yes"/>
      <point x="106" y="314"/>
      <point x="130" y="442"/>
      <point x="264" y="442" type="curve" smooth="yes"/>
      <point x="323" y="442"/>
      <point x="380" y="414"/>
      <point x="398" y="404" type="curve"/>
    </contour>
  </outline>
</glyph>
<glyph name="Gcircumflex" format="1">
  <advance width="744"/>
  <unicode hex="011C"/>
  <outline>
    <contour>
      <point x="647" y="230" type="curve"/>
      <point x="637" y="182"/>
      <point x="587" y="-2"/>
      <point x="355" y="-2" type="curve" smooth="yes"/>
      <point x="182" y="-2"/>
      <point x="60" y="149"/>
      <point x="60" y="341" type="curve" smooth="yes"/>
      <point x="60" y="500"/>
      <point x="186" y="682"/>
      <point x="374" y="682" type="curve" smooth="yes"/>
      <point x="525" y="682"/>
      <point x="620" y="598"/>
      <point x="650" y="477" type="curve"/>
      <point x="597" y="466" type="line"/>
      <point x="572" y="565"/>
      <point x="497" y="629"/>
      <point x="374" y="629" type="curve" smooth="yes"/>
      <point x="192" y="629"/>
      <point x="114" y="438"/>
      <point x="114" y="341" type="curve" smooth="yes"/>
      <point x="114" y="199"/>
      <point x="197" y="52"/>
      <point x="355" y="52" type="curve" smooth="yes"/>
      <point x="482" y="52"/>
      <point x="564" y="120"/>
      <point x="594" y="235" type="curve"/>
      <point x="584" y="236"/>
      <point x="572" y="236"/>
      <point x="567" y="236" type="curve" smooth="yes"/>
      <point x="507" y="236"/>
      <point x="443" y="224"/>
      <point x="406" y="208" type="curve"/>
      <point x="406" y="266" type="line"/>
      <point x="452" y="281"/>
      <point x="512" y="289"/>
      <point x="570" y="289" type="curve" smooth="yes"/>
      <point x="611" y="289"/>
      <point x="651" y="285"/>
      <point x="684" y="277" type="curve"/>
      <point x="684" y="221" type="line"/>
      <point x="675" y="224"/>
      <point x="660" y="229"/>
    </contour>
    <contour>
      <point x="268" y="718" type="line"/>
      <point x="235" y="760" type="line"/>
      <point x="385" y="881" type="line"/>
      <point x="514" y="759" type="line"/>
      <point x="478" y="719" type="line"/>
      <point x="382" y="806" type="line"/>
    </contour>
  </outline>
</glyph>
<glyph name="lacute" format="1">
  <advance width="226"/>
  <unicode hex="013A"/>
  <outline>
    <contour>
      <point x="85" y="681" type="line"/>
      <point x="141" y="692" type="line"/>
      <point x="141" y="10" type="line"/>
      <point x="85" y="0" type="line"/>
    </contour>
    <contour>
      <point x="40" y="771" type="line"/>
      <point x="190" y="893" type="line"/>
      <point x="242" y="848" type="line"/>
      <point x="80" y="736" type="line"/>
    </contour>
  </outline>
</glyph>
<glyph name="lcaron" format="1">
  <advance width="290"/>
  <unicode hex="013E"/>
  <outline>
    <contour>
      <point x="85" y="681" type="line"/>
      <point x="85" y="0" type="line"/>
      <point x="141" y="10" type="line"/>
      <point x="141" y="692" type="line"/>
    </contour>
    <contour>
      <point x="245" y="694" type="line"/>
      <point x="188" y="635" type="line"/>
      <point x="227" y="613" type="line"/>
      <point x="173" y="517" type="line"/>
      <point x="222" y="489" type="line"/>
      <point x="315" y="655" type="line"/>
    </contour>
  </outline>
</glyph>
<glyph name="lslash" format="1">
  <advance width="266"/>
  <unicode hex="0142"/>
  <outline>
    <contour>
      <point x="246" y="384" type="line"/>
      <point x="215" y="432" type="line"/>
      <point x="161" y="397" type="line"/>
      <point x="161" y="692" type="line"/>
      <point x="105" y="681" type="line"/>
      <point x="105" y="362" type="line"/>
      <point x="20" y="308" type="line"/>
      <point x="52" y="261" type="line"/>
      <point x="105" y="294" type="line"/>
      <point x="105" y="0" type="line"/>
      <point x="161" y="10" type="line"/>
      <point x="161" y="330" type="line"/>
    </contour>
  </outline>
</glyph>
<glyph name="Nacute" format="1">
  <advance width="615"/>
  <unicode hex="0143"/>
  <outline>
    <contour>
      <point x="497" y="671" type="line"/>
      <point x="497" y="88" type="line"/>
      <point x="124" y="681" type="line"/>
      <point x="65" y="664" type="line"/>
      <point x="66" y="1" type="line"/>
      <point x="119" y="12" type="line"/>
      <point x="119" y="588" type="line"/>
      <point x="486" y="0" type="line"/>
      <point x="550" y="13" type="line"/>
      <point x="550" y="681" type="line"/>
    </contour>
    <contour>
      <point x="207" y="771" type="line"/>
      <point x="248" y="736" type="line"/>
      <point x="410" y="848" type="line"/>
      <point x="357" y="893" type="line"/>
    </contour>
  </outline>
</glyph>
<glyph name="Ncaron" format="1">
  <advance width="615"/>
  <unicode hex="0147"/>
  <outline>
    <contour>
      <point x="497" y="671" type="line"/>
      <point x="497" y="88" type="line"/>
      <point x="124" y="681" type="line"/>
      <point x="65" y="664" type="line"/>
      <point x="66" y="1" type="line"/>
      <point x="119" y="12" type="line"/>
      <point x="119" y="588" type="line"/>
      <point x="486" y="0" type="line"/>
      <point x="550" y="13" type="line"/>
      <point x="550" y="681" type="line"/>
    </contour>
    <contour>
      <point x="425" y="881" type="line"/>
      <point x="310" y="792" type="line"/>
      <point x="214" y="880" type="line"/>
      <point x="178" y="840" type="line"/>
      <point x="307" y="718" type="line"/>
      <point x="458" y="838" type="line"/>
    </contour>
  </outline>
</glyph>
<glyph name="ncaron" format="1">
  <advance width="536"/>
  <unicode hex="0148"/>
  <outline>
    <contour>
      <point x="121" y="502" type="line"/>
      <point x="121" y="297" type="line"/>
      <point x="142" y="411"/>
      <point x="225" y="501"/>
      <point x="326" y="501" type="curve" smooth="yes"/>
      <point x="394" y="501"/>
      <point x="436" y="465"/>
      <point x="454" y="393" type="curve" smooth="yes"/>
      <point x="469" y="332"/>
      <point x="469" y="248"/>
      <point x="470" y="115" type="curve" smooth="yes"/>
      <point x="471" y="12" type="line"/>
      <point x="417" y="0" type="line"/>
      <point x="416" y="114" type="line" smooth="yes"/>
      <point x="415" y="226"/>
      <point x="416" y="322"/>
      <point x="401" y="379" type="curve" smooth="yes"/>
      <point x="389" y="428"/>
      <point x="369" y="446"/>
      <point x="326" y="446" type="curve" smooth="yes"/>
      <point x="282" y="446"/>
      <point x="229" y="426"/>
      <point x="176" y="327" type="curve" smooth="yes"/>
      <point x="143" y="265"/>
      <point x="121" y="182"/>
      <point x="121" y="112" type="curve" smooth="yes"/>
      <point x="120" y="11" type="line"/>
      <point x="65" y="0" type="line"/>
      <point x="65" y="492" type="line"/>
    </contour>
    <contour>
      <point x="403" y="712" type="line"/>
      <point x="436" y="669" type="line"/>
      <point x="285" y="549" type="line"/>
      <point x="156" y="671" type="line"/>
      <point x="192" y="711" type="line"/>
      <point x="288" y="623" type="line"/>
    </contour>
  </outline>
</glyph>
<glyph name="ohungarumlaut" format="1">
  <advance width="555"/>
  <unicode hex="0151"/>
  <outline>
    <contour>
      <point x="142" y="602" type="line"/>
      <point x="292" y="724" type="line"/>
      <point x="344" y="679" type="line"/>
      <point x="182" y="567" type="line"/>
    </contour>
    <contour>
      <point x="302" y="602" type="line"/>
      <point x="452" y="724" type="line"/>
      <point x="505" y="679" type="line"/>
      <point x="343" y="567" type="line"/>
    </contour>
    <contour>
      <point x="252" y="0" type="curve" smooth="yes"/>
      <point x="137" y="0"/>
      <point x="50" y="104"/>
      <point x="50" y="230" type="curve" smooth="yes"/>
      <point x="50" y="376"/>
      <point x="157" y="500"/>
      <point x="283" y="500" type="curve" smooth="yes"/>
      <point x="397" y="500"/>
      <point x="485" y="394"/>
      <point x="485" y="270" type="curve" smooth="yes"/>
      <point x="485" y="123"/>
      <point x="378" y="0"/>
    </contour>
    <contour>
      <point x="278" y="452" type="curve" smooth="yes"/>
      <point x="185" y="452"/>
      <point x="107" y="349"/>
      <point x="107" y="232" type="curve" smooth="yes"/>
      <point x="107" y="133"/>
      <point x="165" y="48"/>
      <point x="252" y="48" type="curve" smooth="yes"/>
      <point x="343" y="48"/>
      <point x="427" y="149"/>
      <point x="427" y="265" type="curve" smooth="yes"/>
      <point x="427" y="365"/>
      <point x="361" y="452"/>
    </contour>
  </outline>
</glyph>
<glyph name="oe" format="1">
  <advance width="911"/>
  <unicode hex="0153"/>
  <outline>
    <contour>
      <point x="676" y="51" type="curve" smooth="yes"/>
      <point x="602" y="51"/>
      <point x="538" y="95"/>
      <point x="507" y="159" type="curve"/>
      <point x="613" y="218"/>
      <point x="861" y="355"/>
      <point x="861" y="355" type="curve"/>
      <point x="838" y="435"/>
      <point x="758" y="502"/>
      <point x="676" y="502" type="curve" smooth="yes"/>
      <point x="584" y="502"/>
      <point x="505" y="448"/>
      <point x="464" y="372" type="curve"/>
      <point x="430" y="451"/>
      <point x="360" y="500"/>
      <point x="283" y="500" type="curve" smooth="yes"/>
      <point x="157" y="500"/>
      <point x="50" y="376"/>
      <point x="50" y="230" type="curve" smooth="yes"/>
      <point x="50" y="104"/>
      <point x="137" y="0"/>
      <point x="252" y="0" type="curve" smooth="yes"/>
      <point x="339" y="0"/>
      <point x="417" y="59"/>
      <point x="457" y="144" type="curve"/>
      <point x="496" y="59"/>
      <point x="579" y="0"/>
      <point x="676" y="0" type="curve" smooth="yes"/>
      <point x="741" y="0"/>
      <point x="803" y="27"/>
      <point x="849" y="76" type="curve"/>
      <point x="812" y="111" type="line"/>
      <point x="775" y="72"/>
      <point x="727" y="51"/>
    </contour>
    <contour>
      <point x="427" y="265" type="curve" smooth="yes"/>
      <point x="427" y="150"/>
      <point x="341" y="48"/>
      <point x="252" y="48" type="curve" smooth="yes"/>
      <point x="165" y="48"/>
      <point x="107" y="133"/>
      <point x="107" y="232" type="curve" smooth="yes"/>
      <point x="107" y="349"/>
      <point x="185" y="452"/>
      <point x="278" y="452" type="curve" smooth="yes"/>
      <point x="361" y="452"/>
      <point x="427" y="365"/>
    </contour>
    <contour>
      <point x="485" y="251" type="curve" smooth="yes"/>
      <point x="485" y="361"/>
      <point x="570" y="451"/>
      <point x="676" y="451" type="curve" smooth="yes"/>
      <point x="723" y="451"/>
      <point x="768" y="424"/>
      <point x="794" y="378" type="curve"/>
      <point x="490" y="208" type="line"/>
      <point x="487" y="222"/>
      <point x="485" y="236"/>
    </contour>
  </outline>
</glyph>
<glyph name="racute" format="1">
  <advance width="401"/>
  <unicode hex="0155"/>
  <outline>
    <contour>
      <point x="375" y="431" type="line" smooth="yes"/>
      <point x="375" y="470"/>
      <point x="340" y="502"/>
      <point x="293" y="502" type="curve" smooth="yes"/>
      <point x="211" y="502"/>
      <point x="152" y="430"/>
      <point x="121" y="376" type="curve"/>
      <point x="121" y="502" type="line"/>
      <point x="65" y="492" type="line"/>
      <point x="65" y="0" type="line"/>
      <point x="121" y="10" type="line"/>
      <point x="121" y="252" type="line" smooth="yes"/>
      <point x="121" y="348"/>
      <point x="215" y="447"/>
      <point x="286" y="447" type="curve" smooth="yes"/>
      <point x="316" y="447"/>
      <point x="320" y="433"/>
      <point x="320" y="412" type="curve" smooth="yes"/>
      <point x="320" y="379" type="line"/>
      <point x="375" y="389" type="line"/>
    </contour>
    <contour>
      <point x="133" y="602" type="line"/>
      <point x="173" y="567" type="line"/>
      <point x="335" y="679" type="line"/>
      <point x="283" y="724" type="line"/>
    </contour>
  </outline>
</glyph>
<glyph name="Scaron" format="1">
  <advance width="599"/>
  <unicode hex="0160"/>
  <outline>
    <contour>
      <point x="160" y="505" type="curve" smooth="yes"/>
      <point x="160" y="562"/>
      <point x="187" y="631"/>
      <point x="329" y="631" type="curve" smooth="yes"/>
      <point x="387" y="631"/>
      <point x="483" y="609"/>
      <point x="483" y="526" type="curve" smooth="yes"/>
      <point x="483" y="522"/>
      <point x="483" y="515"/>
      <point x="482" y="510" type="curve"/>
      <point x="534" y="521" type="line"/>
      <point x="535" y="527"/>
      <point x="535" y="533"/>
      <point x="535" y="539" type="curve" smooth="yes"/>
      <point x="535" y="649"/>
      <point x="419" y="681"/>
      <point x="329" y="681" type="curve" smooth="yes"/>
      <point x="228" y="681"/>
      <point x="96" y="649"/>
      <point x="96" y="507" type="curve" smooth="yes"/>
      <point x="96" y="410"/>
      <point x="209" y="356"/>
      <point x="306" y="330" type="curve" smooth="yes"/>
      <point x="464" y="287"/>
      <point x="475" y="228"/>
      <point x="475" y="197" type="curve" smooth="yes"/>
      <point x="475" y="105"/>
      <point x="398" y="52"/>
      <point x="304" y="52" type="curve" smooth="yes"/>
      <point x="232" y="52"/>
      <point x="148" y="86"/>
      <point x="121" y="162" type="curve"/>
      <point x="60" y="152" type="line"/>
      <point x="90" y="60"/>
      <point x="187" y="-1"/>
      <point x="305" y="-1" type="curve" smooth="yes"/>
      <point x="406" y="-1"/>
      <point x="538" y="60"/>
      <point x="538" y="190" type="curve" smooth="yes"/>
      <point x="538" y="282"/>
      <point x="466" y="346"/>
      <point x="319" y="387" type="curve" smooth="yes"/>
      <point x="214" y="416"/>
      <point x="160" y="455"/>
    </contour>
    <contour>
      <point x="438" y="881" type="line"/>
      <point x="324" y="792" type="line"/>
      <point x="228" y="880" type="line"/>
      <point x="192" y="840" type="line"/>
      <point x="321" y="718" type="line"/>
      <point x="471" y="838" type="line"/>
    </contour>
  </outline>
</glyph>
<glyph name="scaron" format="1">
  <advance width="460"/>
  <unicode hex="0161"/>
  <outline>
    <contour>
      <point x="254" y="505" type="curve" smooth="yes"/>
      <point x="180" y="505"/>
      <point x="78" y="483"/>
      <point x="78" y="376" type="curve" smooth="yes"/>
      <point x="78" y="299"/>
      <point x="161" y="259"/>
      <point x="234" y="240" type="curve" smooth="yes"/>
      <point x="300" y="222"/>
      <point x="353" y="197"/>
      <point x="353" y="144" type="curve" smooth="yes"/>
      <point x="353" y="88"/>
      <point x="297" y="50"/>
      <point x="234" y="50" type="curve" smooth="yes"/>
      <point x="178" y="50"/>
      <point x="121" y="77"/>
      <point x="105" y="130" type="curve"/>
      <point x="50" y="121" type="line"/>
      <point x="72" y="44"/>
      <point x="151" y="0"/>
      <point x="234" y="0" type="curve" smooth="yes"/>
      <point x="291" y="0"/>
      <point x="409" y="31"/>
      <point x="409" y="145" type="curve" smooth="yes"/>
      <point x="409" y="214"/>
      <point x="356" y="262"/>
      <point x="247" y="292" type="curve" smooth="yes"/>
      <point x="172" y="312"/>
      <point x="135" y="339"/>
      <point x="135" y="373" type="curve" smooth="yes"/>
      <point x="135" y="419"/>
      <point x="160" y="457"/>
      <point x="254" y="458" type="curve" smooth="yes"/>
      <point x="300" y="458"/>
      <point x="358" y="440"/>
      <point x="358" y="384" type="curve" smooth="yes"/>
      <point x="358" y="379"/>
      <point x="358" y="374"/>
      <point x="357" y="369" type="curve"/>
      <point x="406" y="379" type="line"/>
      <point x="407" y="385"/>
      <point x="407" y="391"/>
      <point x="407" y="397" type="curve" smooth="yes"/>
      <point x="407" y="486"/>
      <point x="311" y="505"/>
    </contour>
    <contour>
      <point x="358" y="712" type="line"/>
      <point x="243" y="623" type="line"/>
      <point x="147" y="711" type="line"/>
      <point x="111" y="671" type="line"/>
      <point x="240" y="549" type="line"/>
      <point x="391" y="669" type="line"/>
    </contour>
  </outline>
</glyph>
<glyph name="uni0162" format="1">
  <advance width="522"/>
  <unicode hex="0162"/>
  <outline>
    <contour>
      <point x="225" y="0" type="line"/>
      <point x="225" y="625" type="line"/>
      <point x="10" y="625" type="line"/>
      <point x="10" y="681" type="line"/>
      <point x="512" y="681" type="line"/>
      <point x="512" y="625" type="line"/>
      <point x="282" y="625" type="line"/>
      <point x="282" y="10" type="line"/>
    </contour>
    <contour>
      <point x="259" y="-19" type="line"/>
      <point x="329" y="-58" type="line"/>
      <point x="236" y="-224" type="line"/>
      <point x="187" y="-196" type="line"/>
      <point x="241" y="-100" type="line"/>
      <point x="202" y="-78" type="line"/>
    </contour>
  </outline>
</glyph>
<glyph name="uni0163" format="1">
  <advance width="373"/>
  <unicode hex="0163"/>
  <outline>
    <contour>
      <point x="353" y="502" type="line"/>
      <point x="353" y="446" type="line"/>
      <point x="215" y="446" type="line"/>
      <point x="215" y="10" type="line"/>
      <point x="158" y="0" type="line"/>
      <point x="158" y="446" type="line"/>
      <point x="20" y="446" type="line"/>
      <point x="20" y="502" type="line"/>
      <point x="158" y="502" type="line"/>
      <point x="158" y="661" type="line"/>
      <point x="215" y="671" type="line"/>
      <point x="215" y="502" type="line"/>
    </contour>
    <contour>
      <point x="189" y="-19" type="line"/>
      <point x="259" y="-58" type="line"/>
      <point x="166" y="-224" type="line"/>
      <point x="117" y="-196" type="line"/>
      <point x="171" y="-100" type="line"/>
      <point x="132" y="-78" type="line"/>
    </contour>
  </outline>
</glyph>
<glyph name="Tcaron" format="1">
  <advance width="522"/>
  <unicode hex="0164"/>
  <outline>
    <contour>
      <point x="225" y="0" type="line"/>
      <point x="282" y="10" type="line"/>
      <point x="282" y="625" type="line"/>
      <point x="512" y="625" type="line"/>
      <point x="512" y="681" type="line"/>
      <point x="10" y="681" type="line"/>
      <point x="10" y="625" type="line"/>
      <point x="225" y="625" type="line"/>
    </contour>
    <contour>
      <point x="373" y="881" type="line"/>
      <point x="259" y="792" type="line"/>
      <point x="163" y="880" type="line"/>
      <point x="127" y="840" type="line"/>
      <point x="256" y="718" type="line"/>
      <point x="406" y="838" type="line"/>
    </contour>
  </outline>
</glyph>
<glyph name="tcaron" format="1">
  <advance width="429"/>
  <unicode hex="0165"/>
  <outline>
    <contour>
      <point x="339" y="737" type="line"/>
      <point x="409" y="698" type="line"/>
      <point x="316" y="532" type="line"/>
      <point x="267" y="560" type="line"/>
      <point x="321" y="656" type="line"/>
      <point x="282" y="678" type="line"/>
    </contour>
    <contour>
      <point x="353" y="502" type="line"/>
      <point x="353" y="446" type="line"/>
      <point x="215" y="446" type="line"/>
      <point x="215" y="10" type="line"/>
      <point x="158" y="0" type="line"/>
      <point x="158" y="446" type="line"/>
      <point x="20" y="446" type="line"/>
      <point x="20" y="502" type="line"/>
      <point x="158" y="502" type="line"/>
      <point x="158" y="661" type="line"/>
      <point x="215" y="671" type="line"/>
      <point x="215" y="502" type="line"/>
    </contour>
  </outline>
</glyph>
<glyph name="Uring" format="1">
  <advance width="684"/>
  <unicode hex="016E"/>
  <outline>
    <contour>
      <point x="342" y="0" type="curve" smooth="yes"/>
      <point x="598" y="0"/>
      <point x="618" y="245"/>
      <point x="618" y="476" type="curve" smooth="yes"/>
      <point x="618" y="550"/>
      <point x="617" y="656"/>
      <point x="616" y="680" type="curve"/>
      <point x="560" y="669" type="line"/>
      <point x="561" y="634"/>
      <point x="562" y="514"/>
      <point x="562" y="431" type="curve" smooth="yes"/>
      <point x="562" y="260"/>
      <point x="546" y="49"/>
      <point x="342" y="49" type="curve" smooth="yes"/>
      <point x="145" y="49"/>
      <point x="122" y="241"/>
      <point x="122" y="450" type="curve" smooth="yes"/>
      <point x="122" y="534"/>
      <point x="124" y="658"/>
      <point x="125" y="680" type="curve"/>
      <point x="68" y="670" type="line"/>
      <point x="67" y="640"/>
      <point x="66" y="529"/>
      <point x="66" y="459" type="curve" smooth="yes"/>
      <point x="66" y="197"/>
      <point x="105" y="0"/>
    </contour>
    <contour>
      <point x="342" y="721" type="curve" smooth="yes"/>
      <point x="405" y="721"/>
      <point x="476" y="763"/>
      <point x="476" y="837" type="curve" smooth="yes"/>
      <point x="476" y="888"/>
      <point x="432" y="940"/>
      <point x="362" y="940" type="curve" smooth="yes"/>
      <point x="288" y="940"/>
      <point x="228" y="886"/>
      <point x="228" y="823" type="curve" smooth="yes"/>
      <point x="228" y="768"/>
      <point x="275" y="721"/>
    </contour>
    <contour>
      <point x="359" y="893" type="curve" smooth="yes"/>
      <point x="400" y="893"/>
      <point x="435" y="866"/>
      <point x="435" y="835" type="curve" smooth="yes"/>
      <point x="435" y="796"/>
      <point x="386" y="767"/>
      <point x="344" y="767" type="curve" smooth="yes"/>
      <point x="303" y="767"/>
      <point x="270" y="790"/>
      <point x="270" y="823" type="curve" smooth="yes"/>
      <point x="270" y="868"/>
      <point x="324" y="893"/>
    </contour>
  </outline>
</glyph>
<glyph name="Uhungarumlaut" format="1">
  <advance width="684"/>
  <unicode hex="0170"/>
  <outline>
    <contour>
      <point x="342" y="0" type="curve" smooth="yes"/>
      <point x="598" y="0"/>
      <point x="618" y="245"/>
      <point x="618" y="476" type="curve" smooth="yes"/>
      <point x="618" y="550"/>
      <point x="617" y="656"/>
      <point x="616" y="680" type="curve"/>
      <point x="560" y="669" type="line"/>
      <point x="561" y="634"/>
      <point x="562" y="514"/>
      <point x="562" y="431" type="curve" smooth="yes"/>
      <point x="562" y="260"/>
      <point x="546" y="49"/>
      <point x="342" y="49" type="curve" smooth="yes"/>
      <point x="145" y="49"/>
      <point x="122" y="241"/>
      <point x="122" y="450" type="curve" smooth="yes"/>
      <point x="122" y="534"/>
      <point x="124" y="658"/>
      <point x="125" y="680" type="curve"/>
      <point x="68" y="670" type="line"/>
      <point x="67" y="640"/>
      <point x="66" y="529"/>
      <point x="66" y="459" type="curve" smooth="yes"/>
      <point x="66" y="197"/>
      <point x="105" y="0"/>
    </contour>
    <contour>
      <point x="187" y="771" type="line"/>
      <point x="228" y="736" type="line"/>
      <point x="390" y="848" type="line"/>
      <point x="337" y="893" type="line"/>
    </contour>
    <contour>
      <point x="348" y="771" type="line"/>
      <point x="388" y="736" type="line"/>
      <point x="550" y="848" type="line"/>
      <point x="498" y="893" type="line"/>
    </contour>
  </outline>
</glyph>
<glyph name="Zacute" format="1">
  <advance width="621"/>
  <unicode hex="0179"/>
  <outline>
    <contour>
      <point x="73" y="0" type="line"/>
      <point x="551" y="0" type="line"/>
      <point x="562" y="61" type="line"/>
      <point x="118" y="61" type="line"/>
      <point x="571" y="626" type="line"/>
      <point x="546" y="681" type="line"/>
      <point x="90" y="681" type="line"/>
      <point x="79" y="620" type="line"/>
      <point x="501" y="620" type="line"/>
      <point x="48" y="55" type="line"/>
    </contour>
    <contour>
      <point x="239" y="771" type="line"/>
      <point x="279" y="736" type="line"/>
      <point x="442" y="848" type="line"/>
      <point x="389" y="893" type="line"/>
    </contour>
  </outline>
</glyph>
<glyph name="Zdotaccent" format="1">
  <advance width="621"/>
  <unicode hex="017B"/>
  <outline>
    <contour>
      <point x="73" y="0" type="line"/>
      <point x="551" y="0" type="line"/>
      <point x="562" y="61" type="line"/>
      <point x="118" y="61" type="line"/>
      <point x="571" y="626" type="line"/>
      <point x="546" y="681" type="line"/>
      <point x="90" y="681" type="line"/>
      <point x="79" y="620" type="line"/>
      <point x="501" y="620" type="line"/>
      <point x="48" y="55" type="line"/>
    </contour>
    <contour>
      <point x="351" y="820" type="line"/>
      <point x="278" y="810" type="line"/>
      <point x="269" y="728" type="line"/>
      <point x="343" y="738" type="line"/>
    </contour>
  </outline>
</glyph>
<glyph name="zdotaccent" format="1">
  <advance width="453"/>
  <unicode hex="017C"/>
  <outline>
    <contour>
      <point x="406" y="0" type="line"/>
      <point x="416" y="56" type="line"/>
      <point x="105" y="56" type="line"/>
      <point x="423" y="457" type="line"/>
      <point x="401" y="502" type="line"/>
      <point x="62" y="502" type="line"/>
      <point x="52" y="446" type="line"/>
      <point x="348" y="446" type="line"/>
      <point x="30" y="46" type="line"/>
      <point x="52" y="0" type="line"/>
    </contour>
    <contour>
      <point x="281" y="663" type="line"/>
      <point x="208" y="653" type="line"/>
      <point x="199" y="571" type="line"/>
      <point x="273" y="581" type="line"/>
    </contour>
  </outline>
</glyph>
<glyph name="zcaron" format="1">
  <advance width="453"/>
  <unicode hex="017E"/>
  <outline>
    <contour>
      <point x="406" y="0" type="line"/>
      <point x="416" y="56" type="line"/>
      <point x="105" y="56" type="line"/>
      <point x="423" y="457" type="line"/>
      <point x="401" y="502" type="line"/>
      <point x="62" y="502" type="line"/>
      <point x="52" y="446" type="line"/>
      <point x="348" y="446" type="line"/>
      <point x="30" y="46" type="line"/>
      <point x="52" y="0" type="line"/>
    </contour>
    <contour>
      <point x="352" y="712" type="line"/>
      <point x="238" y="623" type="line"/>
      <point x="142" y="711" type="line"/>
      <point x="106" y="671" type="line"/>
      <point x="235" y="549" type="line"/>
      <point x="385" y="669" type="line"/>
    </contour>
  </outline>
</glyph>
<glyph name="breve" format="1">
  <advance width="500"/>
  <unicode hex="02D8"/>
  <outline>
    <contour>
      <point x="256" y="605" type="curve" smooth="yes"/>
      <point x="219" y="605"/>
      <point x="167" y="617"/>
      <point x="133" y="678" type="curve"/>
      <point x="103" y="648" type="line"/>
      <point x="127" y="595"/>
      <point x="185" y="559"/>
      <point x="255" y="559" type="curve" smooth="yes"/>
      <point x="318" y="559"/>
      <point x="378" y="597"/>
      <point x="397" y="652" type="curve"/>
      <point x="366" y="683" type="line"/>
      <point x="348" y="634"/>
      <point x="319" y="605"/>
    </contour>
  </outline>
</glyph>
<glyph name="dotaccent" format="1">
  <advance width="500"/>
  <unicode hex="02D9"/>
  <outline>
    <contour>
      <point x="291" y="639" type="line"/>
      <point x="283" y="557" type="line"/>
      <point x="209" y="547" type="line"/>
      <point x="218" y="629" type="line"/>
    </contour>
  </outline>
</glyph>
<glyph name="hungarumlaut" format="1">
  <advance width="500"/>
  <unicode hex="02DD"/>
  <outline>
    <contour>
      <point x="228" y="602" type="line"/>
      <point x="269" y="567" type="line"/>
      <point x="431" y="679" type="line"/>
      <point x="378" y="724" type="line"/>
    </contour>
    <contour>
      <point x="68" y="602" type="line"/>
      <point x="108" y="567" type="line"/>
      <point x="270" y="679" type="line"/>
      <point x="218" y="724" type="line"/>
    </contour>
  </outline>
</glyph>
<glyph name="emdash" format="1">
  <advance width="877"/>
  <unicode hex="2014"/>
  <outline>
    <contour>
      <point x="798" y="222" type="line"/>
      <point x="808" y="278" type="line"/>
      <point x="81" y="278" type="line"/>
      <point x="71" y="222" type="line"/>
    </contour>
  </outline>
</glyph>
<glyph name="quotesinglbase" format="1">
  <advance width="316"/>
  <unicode hex="201A"/>
  <outline>
    <contour>
      <point x="162" y="79" type="line"/>
      <point x="232" y="40" type="line"/>
      <point x="139" y="-126" type="line"/>
      <point x="90" y="-98" type="line"/>
      <point x="144" y="-2" type="line"/>
      <point x="105" y="20" type="line"/>
    </contour>
  </outline>
</glyph>
<glyph name="bullet" format="1">
  <advance width="378"/>
  <unicode hex="2022"/>
  <outline>
    <contour>
      <point x="278" y="253" type="curve" smooth="yes"/>
      <point x="278" y="302"/>
      <point x="239" y="342"/>
      <point x="190" y="342" type="curve" smooth="yes"/>
      <point x="141" y="342"/>
      <point x="101" y="302"/>
      <point x="101" y="253" type="curve" smooth="yes"/>
      <point x="101" y="204"/>
      <point x="141" y="164"/>
      <point x="190" y="164" type="curve" smooth="yes"/>
      <point x="239" y="164"/>
      <point x="278" y="204"/>
    </contour>
  </outline>
</glyph>
<glyph name="ellipsis" format="1">
  <advance width="734"/>
  <unicode hex="2026"/>
  <outline>
    <contour>
      <point x="151" y="92" type="line"/>
      <point x="78" y="82" type="line"/>
      <point x="69" y="0" type="line"/>
      <point x="143" y="10" type="line"/>
    </contour>
    <contour>
      <point x="663" y="92" type="line"/>
      <point x="590" y="82" type="line"/>
      <point x="581" y="0" type="line"/>
      <point x="655" y="10" type="line"/>
    </contour>
    <contour>
      <point x="407" y="92" type="line"/>
      <point x="334" y="82" type="line"/>
      <point x="325" y="0" type="line"/>
      <point x="399" y="10" type="line"/>
    </contour>
  </outline>
</glyph>
<glyph name="guilsinglleft" format="1">
  <advance width="404"/>
  <unicode hex="2039"/>
  <outline>
    <contour>
      <point x="277" y="64" type="line"/>
      <point x="72" y="250" type="line"/>
      <point x="295" y="440" type="line"/>
      <point x="330" y="400" type="line"/>
      <point x="153" y="249" type="line"/>
      <point x="313" y="104" type="line"/>
    </contour>
  </outline>
</glyph>
<glyph name="Euro" format="1">
  <advance width="663"/>
  <unicode hex="20AC"/>
  <outline>
    <contour>
      <point x="423" y="0" type="curve" smooth="yes"/>
      <point x="485" y="0"/>
      <point x="546" y="19"/>
      <point x="592" y="51" type="curve"/>
      <point x="553" y="89" type="line"/>
      <point x="519" y="68"/>
      <point x="476" y="54"/>
      <point x="417" y="54" type="curve" smooth="yes"/>
      <point x="310" y="54"/>
      <point x="203" y="160"/>
      <point x="195" y="261" type="curve"/>
      <point x="419" y="261" type="line"/>
      <point x="430" y="318" type="line"/>
      <point x="193" y="318" type="line"/>
      <point x="195" y="339"/>
      <point x="198" y="361"/>
      <point x="204" y="385" type="curve"/>
      <point x="440" y="385" type="line"/>
      <point x="450" y="442" type="line"/>
      <point x="222" y="442" type="line"/>
      <point x="250" y="519"/>
      <point x="336" y="637"/>
      <point x="430" y="637" type="curve" smooth="yes"/>
      <point x="492" y="637"/>
      <point x="533" y="617"/>
      <point x="561" y="594" type="curve"/>
      <point x="600" y="630" type="line"/>
      <point x="557" y="669"/>
      <point x="500" y="691"/>
      <point x="435" y="691" type="curve" smooth="yes"/>
      <point x="285" y="691"/>
      <point x="187" y="514"/>
      <point x="166" y="442" type="curve"/>
      <point x="71" y="442" type="line"/>
      <point x="61" y="385" type="line"/>
      <point x="150" y="385" type="line"/>
      <point x="146" y="365"/>
      <point x="142" y="342"/>
      <point x="141" y="318" type="curve"/>
      <point x="71" y="318" type="line"/>
      <point x="61" y="261" type="line"/>
      <point x="142" y="261" type="line"/>
      <point x="151" y="121"/>
      <point x="281" y="0"/>
    </contour>
  </outline>
</glyph>
<glyph name=".notdef" format="1">
  <advance width="500"/>
  <outline>
    <contour>
      <point x="18" y="681" type="line"/>
      <point x="18" y="0" type="line"/>
      <point x="480" y="0" type="line"/>
      <point x="480" y="681" type="line"/>
    </contour>
    <contour>
      <point x="271" y="340" type="line"/>
      <point x="440" y="599" type="line"/>
      <point x="440" y="66" type="line"/>
    </contour>
    <contour>
      <point x="247" y="303" type="line"/>
      <point x="409" y="40" type="line"/>
      <point x="75" y="40" type="line"/>
    </contour>
    <contour>
      <point x="86" y="641" type="line"/>
      <point x="420" y="641" type="line"/>
      <point x="248" y="378" type="line"/>
    </contour>
    <contour>
      <point x="224" y="341" type="line"/>
      <point x="58" y="87" type="line"/>
      <point x="58" y="610" type="line"/>
    </contour>
  </outline>
</glyph>
